<svg width="1920" height="779" viewBox="0 0 1920 779" fill="none" xmlns="http://www.w3.org/2000/svg">
<g clip-path="url(#clip0_792_875)">
<rect width="1920" height="779" fill="url(#paint0_linear_792_875)"/>
<path d="M1354.43 -73.6065C1358.26 -75.8156 1364.46 -75.8156 1368.29 -73.6064L1590.46 54.6649C1594.29 56.8741 1594.29 60.4558 1590.46 62.6649L1437.26 151.117C1433.43 153.326 1427.23 153.326 1423.4 151.117L1201.23 22.8454C1197.4 20.6362 1197.4 17.0545 1201.23 14.8454L1354.43 -73.6065Z" fill="white" fill-opacity="0.1"/>
<path fill-rule="evenodd" clip-rule="evenodd" d="M1587 56.6649L1364.83 -71.6064C1362.91 -72.711 1359.81 -72.711 1357.9 -71.6065L1204.69 16.8454C1202.78 17.95 1202.78 19.7408 1204.69 20.8454L1426.87 149.117C1428.78 150.221 1431.88 150.221 1433.79 149.117L1587 60.6649C1588.91 59.5604 1588.91 57.7695 1587 56.6649ZM1368.29 -73.6064C1364.46 -75.8156 1358.26 -75.8156 1354.43 -73.6065L1201.23 14.8454C1197.4 17.0545 1197.4 20.6362 1201.23 22.8454L1423.4 151.117C1427.23 153.326 1433.43 153.326 1437.26 151.117L1590.46 62.6649C1594.29 60.4558 1594.29 56.8741 1590.46 54.6649L1368.29 -73.6064Z" fill="white" fill-opacity="0.1"/>
<path fill-rule="evenodd" clip-rule="evenodd" d="M1578.03 67.1866L1346.6 -66.4302L1350.07 -68.4302L1581.5 65.1866L1578.03 67.1866Z" fill="white" fill-opacity="0.1"/>
<path fill-rule="evenodd" clip-rule="evenodd" d="M1421.7 107.891L1276.1 23.8271L1279.56 21.8271L1425.17 105.891L1421.7 107.891Z" fill="white" fill-opacity="0.1"/>
<path fill-rule="evenodd" clip-rule="evenodd" d="M1429.36 125.588L1245.45 19.4028L1248.91 17.4028L1432.83 123.588L1429.36 125.588Z" fill="white" fill-opacity="0.1"/>
<path fill-rule="evenodd" clip-rule="evenodd" d="M1364.83 56.6649C1381.96 66.5562 1409.73 66.5562 1426.87 56.6649C1444 46.7736 1444 30.7366 1426.87 20.8453C1409.73 10.954 1381.96 10.954 1364.83 20.8453C1347.69 30.7366 1347.69 46.7736 1364.83 56.6649ZM1361.36 58.6649C1380.41 69.6607 1411.29 69.6607 1430.33 58.6649C1449.38 47.669 1449.38 29.8412 1430.33 18.8453C1411.29 7.84946 1380.41 7.84946 1361.36 18.8453C1342.32 29.8412 1342.32 47.669 1361.36 58.6649Z" fill="white" fill-opacity="0.1"/>
<path fill-rule="evenodd" clip-rule="evenodd" d="M1385.35 40.9138L1418.2 40.9138L1418.2 43.7423L1380.46 43.7423L1380.46 32.2178L1385.35 32.2178L1385.35 40.9138Z" fill="white" fill-opacity="0.1"/>
<path d="M1287.91 104.903C1291.74 102.694 1297.94 102.694 1301.77 104.903L1523.94 233.174C1527.77 235.383 1527.77 238.965 1523.94 241.174L1370.74 329.626C1366.91 331.835 1360.71 331.835 1356.88 329.626L1134.71 201.355C1130.88 199.146 1130.88 195.564 1134.71 193.355L1287.91 104.903Z" fill="white" fill-opacity="0.1"/>
<path fill-rule="evenodd" clip-rule="evenodd" d="M1520.48 235.174L1298.31 106.903C1296.39 105.798 1293.29 105.798 1291.38 106.903L1138.17 195.355C1136.26 196.459 1136.26 198.25 1138.17 199.355L1360.35 327.626C1362.26 328.731 1365.36 328.731 1367.28 327.626L1520.48 239.174C1522.39 238.07 1522.39 236.279 1520.48 235.174ZM1301.77 104.903C1297.94 102.694 1291.74 102.694 1287.91 104.903L1134.71 193.355C1130.88 195.564 1130.88 199.146 1134.71 201.355L1356.88 329.626C1360.71 331.835 1366.91 331.835 1370.74 329.626L1523.94 241.174C1527.77 238.965 1527.77 235.383 1523.94 233.174L1301.77 104.903Z" fill="white" fill-opacity="0.1"/>
<path fill-rule="evenodd" clip-rule="evenodd" d="M1511.51 245.696L1280.08 112.079L1283.55 110.079L1514.98 243.696L1511.51 245.696Z" fill="white" fill-opacity="0.1"/>
<path fill-rule="evenodd" clip-rule="evenodd" d="M1355.18 286.4L1209.58 202.336L1213.04 200.336L1358.65 284.4L1355.18 286.4Z" fill="white" fill-opacity="0.1"/>
<path fill-rule="evenodd" clip-rule="evenodd" d="M1362.85 304.098L1178.93 197.912L1182.39 195.912L1366.31 302.098L1362.85 304.098Z" fill="white" fill-opacity="0.1"/>
<path d="M1296.53 111.389C1295.92 111.741 1294.94 111.741 1294.33 111.389C1293.72 111.037 1293.72 110.467 1294.33 110.115C1294.94 109.764 1295.92 109.764 1296.53 110.115C1297.14 110.467 1297.14 111.037 1296.53 111.389Z" fill="white" fill-opacity="0.2"/>
<path d="M1300.94 113.936C1300.34 114.288 1299.35 114.288 1298.74 113.936C1298.13 113.585 1298.13 113.014 1298.74 112.663C1299.35 112.311 1300.34 112.311 1300.94 112.663C1301.55 113.014 1301.55 113.585 1300.94 113.936Z" fill="white" fill-opacity="0.2"/>
<path d="M1305.36 116.483C1304.75 116.835 1303.76 116.835 1303.15 116.483C1302.54 116.131 1302.54 115.561 1303.15 115.21C1303.76 114.858 1304.75 114.858 1305.36 115.21C1305.97 115.561 1305.97 116.131 1305.36 116.483Z" fill="white" fill-opacity="0.2"/>
<path fill-rule="evenodd" clip-rule="evenodd" d="M1298.31 235.174C1315.44 245.065 1343.21 245.065 1360.35 235.174C1377.48 225.283 1377.48 209.246 1360.35 199.355C1343.21 189.463 1315.44 189.463 1298.31 199.355C1281.17 209.246 1281.17 225.283 1298.31 235.174ZM1294.84 237.174C1313.89 248.17 1344.77 248.17 1363.81 237.174C1382.86 226.178 1382.86 208.35 1363.81 197.355C1344.77 186.359 1313.89 186.359 1294.84 197.355C1275.8 208.35 1275.8 226.178 1294.84 237.174Z" fill="white" fill-opacity="0.1"/>
<path fill-rule="evenodd" clip-rule="evenodd" d="M1318.84 219.423L1351.68 219.423L1351.68 222.252L1313.94 222.252L1313.94 210.727L1318.84 210.727L1318.84 219.423Z" fill="white" fill-opacity="0.1"/>
<path d="M1030.91 -43.6069C1034.74 -45.8161 1040.94 -45.8161 1044.77 -43.6069L1266.94 84.6644C1270.77 86.8736 1270.77 90.4553 1266.94 92.6644L1113.74 181.116C1109.91 183.325 1103.71 183.325 1099.88 181.116L877.709 52.8449C873.882 50.6357 873.882 47.054 877.709 44.8449L1030.91 -43.6069Z" fill="white" fill-opacity="0.1"/>
<path fill-rule="evenodd" clip-rule="evenodd" d="M1263.48 86.6644L1041.3 -41.6069C1039.39 -42.7115 1036.29 -42.7115 1034.38 -41.6069L881.173 46.8449C879.26 47.9495 879.26 49.7403 881.173 50.8449L1103.35 179.116C1105.26 180.221 1108.36 180.221 1110.27 179.116L1263.48 90.6644C1265.39 89.5599 1265.39 87.769 1263.48 86.6644ZM1044.77 -43.6069C1040.94 -45.8161 1034.74 -45.8161 1030.91 -43.6069L877.709 44.8449C873.882 47.054 873.882 50.6357 877.709 52.8449L1099.88 181.116C1103.71 183.325 1109.91 183.325 1113.74 181.116L1266.94 92.6644C1270.77 90.4553 1270.77 86.8736 1266.94 84.6644L1044.77 -43.6069Z" fill="white" fill-opacity="0.1"/>
<path fill-rule="evenodd" clip-rule="evenodd" d="M1254.51 97.1861L1023.08 -36.4307L1026.54 -38.4307L1257.98 95.1861L1254.51 97.1861Z" fill="white" fill-opacity="0.1"/>
<path fill-rule="evenodd" clip-rule="evenodd" d="M1098.18 137.89L952.579 53.8267L956.043 51.8267L1101.65 135.89L1098.18 137.89Z" fill="white" fill-opacity="0.1"/>
<path fill-rule="evenodd" clip-rule="evenodd" d="M1105.84 155.588L921.925 49.4023L925.389 47.4023L1109.31 153.588L1105.84 155.588Z" fill="white" fill-opacity="0.1"/>
<path fill-rule="evenodd" clip-rule="evenodd" d="M1041.3 86.6644C1058.44 96.5557 1086.21 96.5557 1103.34 86.6644C1120.48 76.7731 1120.48 60.7361 1103.34 50.8448C1086.21 40.9535 1058.44 40.9535 1041.3 50.8448C1024.17 60.7361 1024.17 76.7731 1041.3 86.6644ZM1037.84 88.6644C1056.88 99.6603 1087.76 99.6603 1106.81 88.6644C1125.85 77.6685 1125.85 59.8407 1106.81 48.8448C1087.76 37.849 1056.88 37.849 1037.84 48.8448C1018.79 59.8407 1018.79 77.6685 1037.84 88.6644Z" fill="white" fill-opacity="0.1"/>
<path fill-rule="evenodd" clip-rule="evenodd" d="M1061.83 70.9133L1094.68 70.9133L1094.68 73.7418L1056.93 73.7418L1056.93 62.2173L1061.83 62.2173L1061.83 70.9133Z" fill="white" fill-opacity="0.1"/>
<path d="M974.335 145.842C978.162 143.633 984.366 143.633 988.192 145.842L1210.36 274.114C1214.19 276.323 1214.19 279.905 1210.36 282.114L1057.16 370.565C1053.34 372.775 1047.13 372.775 1043.3 370.565L821.132 242.294C817.306 240.085 817.306 236.503 821.132 234.294L974.335 145.842Z" fill="white" fill-opacity="0.1"/>
<path fill-rule="evenodd" clip-rule="evenodd" d="M1206.9 276.114L984.728 147.842C982.815 146.738 979.713 146.738 977.8 147.842L824.597 236.294C822.683 237.399 822.683 239.19 824.597 240.294L1046.77 368.565C1048.68 369.67 1051.78 369.67 1053.7 368.565L1206.9 280.114C1208.81 279.009 1208.81 277.218 1206.9 276.114ZM988.192 145.842C984.366 143.633 978.162 143.633 974.335 145.842L821.132 234.294C817.306 236.503 817.306 240.085 821.132 242.294L1043.3 370.565C1047.13 372.775 1053.34 372.775 1057.16 370.565L1210.36 282.114C1214.19 279.905 1214.19 276.323 1210.36 274.114L988.192 145.842Z" fill="white" fill-opacity="0.1"/>
<path fill-rule="evenodd" clip-rule="evenodd" d="M1197.94 286.635L966.505 153.019L969.969 151.019L1201.4 284.635L1197.94 286.635Z" fill="white" fill-opacity="0.1"/>
<path fill-rule="evenodd" clip-rule="evenodd" d="M1041.6 327.339L896.003 243.276L899.467 241.276L1045.07 325.339L1041.6 327.339Z" fill="white" fill-opacity="0.1"/>
<path fill-rule="evenodd" clip-rule="evenodd" d="M1049.27 345.037L865.348 238.852L868.812 236.852L1052.73 343.037L1049.27 345.037Z" fill="white" fill-opacity="0.1"/>
<path d="M982.955 152.328C982.345 152.68 981.358 152.68 980.749 152.328C980.139 151.977 980.139 151.406 980.749 151.055C981.358 150.703 982.345 150.703 982.955 151.055C983.564 151.406 983.564 151.977 982.955 152.328Z" fill="white" fill-opacity="0.2"/>
<path d="M987.367 154.876C986.757 155.227 985.77 155.227 985.161 154.876C984.552 154.524 984.552 153.954 985.161 153.602C985.77 153.25 986.757 153.25 987.367 153.602C987.976 153.954 987.976 154.524 987.367 154.876Z" fill="white" fill-opacity="0.2"/>
<path d="M991.779 157.423C991.17 157.774 990.182 157.774 989.573 157.423C988.964 157.071 988.964 156.501 989.573 156.149C990.182 155.797 991.17 155.797 991.779 156.149C992.388 156.501 992.388 157.071 991.779 157.423Z" fill="white" fill-opacity="0.2"/>
<path fill-rule="evenodd" clip-rule="evenodd" d="M984.727 276.114C1001.86 286.005 1029.64 286.005 1046.77 276.114C1063.9 266.222 1063.9 250.185 1046.77 240.294C1029.64 230.403 1001.86 230.403 984.727 240.294C967.595 250.185 967.595 266.222 984.727 276.114ZM981.263 278.114C1000.31 289.109 1031.19 289.109 1050.23 278.114C1069.28 267.118 1069.28 249.29 1050.23 238.294C1031.19 227.298 1000.31 227.298 981.263 238.294C962.218 249.29 962.218 267.118 981.263 278.114Z" fill="white" fill-opacity="0.1"/>
<path fill-rule="evenodd" clip-rule="evenodd" d="M1005.26 260.363L1038.1 260.363L1038.1 263.191L1000.36 263.191L1000.36 251.666L1005.26 251.667L1005.26 260.363Z" fill="white" fill-opacity="0.1"/>
<path d="M902.027 329.75C905.853 327.541 912.057 327.541 915.883 329.75L1138.06 458.022C1141.88 460.231 1141.88 463.813 1138.06 466.022L984.853 554.474C981.026 556.683 974.823 556.683 970.996 554.474L748.824 426.202C744.997 423.993 744.997 420.411 748.824 418.202L902.027 329.75Z" fill="white" fill-opacity="0.1"/>
<path fill-rule="evenodd" clip-rule="evenodd" d="M1134.59 460.022L912.419 331.75C910.506 330.646 907.404 330.646 905.491 331.75L752.288 420.202C750.375 421.307 750.375 423.098 752.288 424.202L974.46 552.474C976.374 553.578 979.476 553.578 981.389 552.474L1134.59 464.022C1136.5 462.917 1136.5 461.126 1134.59 460.022ZM915.883 329.75C912.057 327.541 905.853 327.541 902.027 329.75L748.824 418.202C744.997 420.411 744.997 423.993 748.824 426.202L970.996 554.474C974.823 556.683 981.026 556.683 984.853 554.474L1138.06 466.022C1141.88 463.813 1141.88 460.231 1138.06 458.022L915.883 329.75Z" fill="white" fill-opacity="0.1"/>
<path fill-rule="evenodd" clip-rule="evenodd" d="M1125.63 470.543L894.196 336.927L897.66 334.927L1129.09 468.543L1125.63 470.543Z" fill="white" fill-opacity="0.1"/>
<path fill-rule="evenodd" clip-rule="evenodd" d="M969.296 511.248L823.694 427.185L827.158 425.185L972.76 509.248L969.296 511.248Z" fill="white" fill-opacity="0.1"/>
<path fill-rule="evenodd" clip-rule="evenodd" d="M976.958 528.945L793.04 422.76L796.504 420.76L980.423 526.945L976.958 528.945Z" fill="white" fill-opacity="0.1"/>
<path d="M910.646 336.237C910.037 336.588 909.049 336.588 908.44 336.237C907.831 335.885 907.831 335.315 908.44 334.963C909.049 334.611 910.037 334.611 910.646 334.963C911.255 335.315 911.255 335.885 910.646 336.237Z" fill="white" fill-opacity="0.2"/>
<path d="M915.058 338.784C914.449 339.136 913.461 339.136 912.852 338.784C912.243 338.432 912.243 337.862 912.852 337.51C913.461 337.159 914.449 337.159 915.058 337.51C915.667 337.862 915.667 338.432 915.058 338.784Z" fill="white" fill-opacity="0.2"/>
<path d="M919.47 341.331C918.861 341.682 917.873 341.682 917.264 341.331C916.655 340.979 916.655 340.409 917.264 340.057C917.873 339.706 918.861 339.706 919.47 340.057C920.079 340.409 920.079 340.979 919.47 341.331Z" fill="white" fill-opacity="0.2"/>
<path fill-rule="evenodd" clip-rule="evenodd" d="M912.419 460.022C929.551 469.914 957.328 469.914 974.46 460.022C991.592 450.131 991.592 434.094 974.46 424.203C957.328 414.311 929.551 414.311 912.419 424.203C895.287 434.094 895.287 450.131 912.419 460.022ZM908.955 462.022C928 473.018 958.879 473.018 977.924 462.022C996.97 451.026 996.97 433.199 977.924 422.203C958.879 411.207 928 411.207 908.955 422.203C889.909 433.199 889.909 451.026 908.955 462.022Z" fill="white" fill-opacity="0.1"/>
<path fill-rule="evenodd" clip-rule="evenodd" d="M932.948 444.271L965.793 444.271L965.793 447.1L928.049 447.1L928.049 435.575L932.948 435.575L932.948 444.271Z" fill="white" fill-opacity="0.1"/>
<path d="M1613.45 75.937C1617.28 73.7279 1623.48 73.7279 1627.31 75.937L1849.48 204.208C1853.31 206.418 1853.31 209.999 1849.48 212.208L1696.28 300.66C1692.45 302.869 1686.25 302.869 1682.42 300.66L1460.25 172.389C1456.42 170.18 1456.42 166.598 1460.25 164.389L1613.45 75.937Z" fill="white" fill-opacity="0.1"/>
<path fill-rule="evenodd" clip-rule="evenodd" d="M1846.02 206.208L1623.84 77.937C1621.93 76.8324 1618.83 76.8324 1616.92 77.937L1463.71 166.389C1461.8 167.493 1461.8 169.284 1463.71 170.389L1685.89 298.66C1687.8 299.765 1690.9 299.765 1692.81 298.66L1846.02 210.208C1847.93 209.104 1847.93 207.313 1846.02 206.208ZM1627.31 75.937C1623.48 73.7279 1617.28 73.7279 1613.45 75.937L1460.25 164.389C1456.42 166.598 1456.42 170.18 1460.25 172.389L1682.42 300.66C1686.25 302.869 1692.45 302.869 1696.28 300.66L1849.48 212.208C1853.31 209.999 1853.31 206.418 1849.48 204.208L1627.31 75.937Z" fill="white" fill-opacity="0.1"/>
<path fill-rule="evenodd" clip-rule="evenodd" d="M1837.05 216.73L1605.62 83.1133L1609.08 81.1133L1840.51 214.73L1837.05 216.73Z" fill="white" fill-opacity="0.1"/>
<path fill-rule="evenodd" clip-rule="evenodd" d="M1680.72 257.434L1535.12 173.371L1538.58 171.371L1684.18 255.434L1680.72 257.434Z" fill="white" fill-opacity="0.1"/>
<path fill-rule="evenodd" clip-rule="evenodd" d="M1688.38 275.132L1504.46 168.946L1507.93 166.946L1691.85 273.132L1688.38 275.132Z" fill="white" fill-opacity="0.1"/>
<path d="M1622.07 82.423C1621.46 82.7747 1620.47 82.7747 1619.86 82.423C1619.25 82.0714 1619.25 81.5012 1619.86 81.1495C1620.47 80.7978 1621.46 80.7978 1622.07 81.1495C1622.68 81.5012 1622.68 82.0714 1622.07 82.423Z" fill="white" fill-opacity="0.2"/>
<path d="M1626.48 84.9704C1625.87 85.3221 1624.89 85.3221 1624.28 84.9704C1623.67 84.6187 1623.67 84.0485 1624.28 83.6968C1624.89 83.3452 1625.87 83.3452 1626.48 83.6968C1627.09 84.0485 1627.09 84.6187 1626.48 84.9704Z" fill="white" fill-opacity="0.2"/>
<path d="M1630.89 87.5173C1630.28 87.869 1629.3 87.869 1628.69 87.5173C1628.08 87.1656 1628.08 86.5954 1628.69 86.2437C1629.3 85.892 1630.28 85.892 1630.89 86.2437C1631.5 86.5954 1631.5 87.1656 1630.89 87.5173Z" fill="white" fill-opacity="0.2"/>
<path fill-rule="evenodd" clip-rule="evenodd" d="M1623.84 206.208C1640.98 216.1 1668.75 216.1 1685.88 206.208C1703.02 196.317 1703.02 180.28 1685.88 170.389C1668.75 160.497 1640.98 160.497 1623.84 170.389C1606.71 180.28 1606.71 196.317 1623.84 206.208ZM1620.38 208.208C1639.42 219.204 1670.3 219.204 1689.35 208.208C1708.39 197.212 1708.39 179.385 1689.35 168.389C1670.3 157.393 1639.42 157.393 1620.38 168.389C1601.33 179.385 1601.33 197.212 1620.38 208.208Z" fill="white" fill-opacity="0.1"/>
<path fill-rule="evenodd" clip-rule="evenodd" d="M1644.37 190.457L1677.22 190.457L1677.22 193.286L1639.47 193.286L1639.47 181.761L1644.37 181.761L1644.37 190.457Z" fill="white" fill-opacity="0.1"/>
<path d="M1546.93 254.447C1550.76 252.238 1556.96 252.238 1560.79 254.447L1782.96 382.719C1786.79 384.928 1786.79 388.51 1782.96 390.719L1629.76 479.17C1625.93 481.38 1619.73 481.38 1615.9 479.17L1393.73 350.899C1389.9 348.69 1389.9 345.108 1393.73 342.899L1546.93 254.447Z" fill="white" fill-opacity="0.1"/>
<path fill-rule="evenodd" clip-rule="evenodd" d="M1779.5 384.719L1557.32 256.447C1555.41 255.343 1552.31 255.343 1550.4 256.447L1397.19 344.899C1395.28 346.004 1395.28 347.795 1397.19 348.899L1619.37 477.17C1621.28 478.275 1624.38 478.275 1626.29 477.17L1779.5 388.719C1781.41 387.614 1781.41 385.823 1779.5 384.719ZM1560.79 254.447C1556.96 252.238 1550.76 252.238 1546.93 254.447L1393.73 342.899C1389.9 345.108 1389.9 348.69 1393.73 350.899L1615.9 479.17C1619.73 481.38 1625.93 481.38 1629.76 479.17L1782.96 390.719C1786.79 388.51 1786.79 384.928 1782.96 382.719L1560.79 254.447Z" fill="white" fill-opacity="0.1"/>
<path fill-rule="evenodd" clip-rule="evenodd" d="M1770.53 395.24L1539.1 261.624L1542.56 259.624L1774 393.24L1770.53 395.24Z" fill="white" fill-opacity="0.1"/>
<path fill-rule="evenodd" clip-rule="evenodd" d="M1614.2 435.944L1468.6 351.881L1472.06 349.881L1617.66 433.944L1614.2 435.944Z" fill="white" fill-opacity="0.1"/>
<path fill-rule="evenodd" clip-rule="evenodd" d="M1621.86 453.643L1437.95 347.457L1441.41 345.457L1625.33 451.643L1621.86 453.643Z" fill="white" fill-opacity="0.1"/>
<path d="M1555.55 260.933C1554.94 261.285 1553.95 261.285 1553.34 260.933C1552.74 260.582 1552.74 260.011 1553.34 259.66C1553.95 259.308 1554.94 259.308 1555.55 259.66C1556.16 260.011 1556.16 260.582 1555.55 260.933Z" fill="white" fill-opacity="0.2"/>
<path d="M1559.96 263.481C1559.35 263.832 1558.37 263.832 1557.76 263.481C1557.15 263.129 1557.15 262.559 1557.76 262.207C1558.37 261.855 1559.35 261.855 1559.96 262.207C1560.57 262.559 1560.57 263.129 1559.96 263.481Z" fill="white" fill-opacity="0.2"/>
<path d="M1564.37 266.028C1563.76 266.379 1562.78 266.379 1562.17 266.028C1561.56 265.676 1561.56 265.106 1562.17 264.754C1562.78 264.402 1563.76 264.402 1564.37 264.754C1564.98 265.106 1564.98 265.676 1564.37 266.028Z" fill="white" fill-opacity="0.2"/>
<path fill-rule="evenodd" clip-rule="evenodd" d="M1557.32 384.719C1574.46 394.61 1602.23 394.61 1619.37 384.719C1636.5 374.827 1636.5 358.79 1619.37 348.899C1602.23 339.008 1574.46 339.008 1557.32 348.899C1540.19 358.79 1540.19 374.827 1557.32 384.719ZM1553.86 386.719C1572.91 397.714 1603.78 397.714 1622.83 386.719C1641.87 375.723 1641.87 357.895 1622.83 346.899C1603.78 335.903 1572.91 335.903 1553.86 346.899C1534.81 357.895 1534.81 375.723 1553.86 386.719Z" fill="white" fill-opacity="0.1"/>
<path fill-rule="evenodd" clip-rule="evenodd" d="M1577.85 368.968L1610.7 368.968L1610.7 371.796L1572.95 371.796L1572.95 360.271L1577.85 360.271L1577.85 368.968Z" fill="white" fill-opacity="0.1"/>
<path d="M1233.35 295.387C1237.18 293.178 1243.38 293.178 1247.21 295.387L1469.38 423.659C1473.21 425.868 1473.21 429.449 1469.38 431.659L1316.18 520.11C1312.35 522.32 1306.15 522.32 1302.32 520.11L1080.15 391.839C1076.32 389.63 1076.32 386.048 1080.15 383.839L1233.35 295.387Z" fill="white" fill-opacity="0.1"/>
<path fill-rule="evenodd" clip-rule="evenodd" d="M1465.92 425.659L1243.75 297.387C1241.83 296.283 1238.73 296.283 1236.82 297.387L1083.61 385.839C1081.7 386.944 1081.7 388.734 1083.61 389.839L1305.79 518.11C1307.7 519.215 1310.8 519.215 1312.71 518.11L1465.92 429.659C1467.83 428.554 1467.83 426.763 1465.92 425.659ZM1247.21 295.387C1243.38 293.178 1237.18 293.178 1233.35 295.387L1080.15 383.839C1076.32 386.048 1076.32 389.63 1080.15 391.839L1302.32 520.11C1306.15 522.32 1312.35 522.32 1316.18 520.11L1469.38 431.659C1473.21 429.449 1473.21 425.868 1469.38 423.659L1247.21 295.387Z" fill="white" fill-opacity="0.1"/>
<path fill-rule="evenodd" clip-rule="evenodd" d="M1456.95 436.18L1225.52 302.563L1228.99 300.563L1460.42 434.18L1456.95 436.18Z" fill="white" fill-opacity="0.1"/>
<path fill-rule="evenodd" clip-rule="evenodd" d="M1300.62 476.885L1155.02 392.821L1158.48 390.821L1304.09 474.885L1300.62 476.885Z" fill="white" fill-opacity="0.1"/>
<path fill-rule="evenodd" clip-rule="evenodd" d="M1308.28 494.582L1124.37 388.396L1127.83 386.396L1311.75 492.582L1308.28 494.582Z" fill="white" fill-opacity="0.1"/>
<path d="M1241.97 301.873C1241.36 302.225 1240.38 302.225 1239.77 301.873C1239.16 301.522 1239.16 300.951 1239.77 300.6C1240.38 300.248 1241.36 300.248 1241.97 300.6C1242.58 300.951 1242.58 301.522 1241.97 301.873Z" fill="white" fill-opacity="0.2"/>
<path d="M1246.38 304.421C1245.78 304.772 1244.79 304.772 1244.18 304.421C1243.57 304.069 1243.57 303.499 1244.18 303.147C1244.79 302.795 1245.78 302.795 1246.38 303.147C1246.99 303.499 1246.99 304.069 1246.38 304.421Z" fill="white" fill-opacity="0.2"/>
<path d="M1250.8 306.967C1250.19 307.319 1249.2 307.319 1248.59 306.967C1247.98 306.616 1247.98 306.046 1248.59 305.694C1249.2 305.342 1250.19 305.342 1250.8 305.694C1251.41 306.046 1251.41 306.616 1250.8 306.967Z" fill="white" fill-opacity="0.2"/>
<path fill-rule="evenodd" clip-rule="evenodd" d="M1243.74 425.659C1260.88 435.55 1288.65 435.55 1305.79 425.659C1322.92 415.768 1322.92 399.731 1305.79 389.839C1288.65 379.948 1260.88 379.948 1243.74 389.839C1226.61 399.731 1226.61 415.768 1243.74 425.659ZM1240.28 427.659C1259.33 438.655 1290.2 438.655 1309.25 427.659C1328.3 416.663 1328.3 398.835 1309.25 387.839C1290.2 376.844 1259.33 376.844 1240.28 387.839C1221.24 398.835 1221.24 416.663 1240.28 427.659Z" fill="white" fill-opacity="0.1"/>
<path fill-rule="evenodd" clip-rule="evenodd" d="M1264.27 409.908L1297.12 409.908L1297.12 412.736L1259.38 412.736L1259.38 401.212L1264.27 401.212L1264.27 409.908Z" fill="white" fill-opacity="0.1"/>
<path d="M1161.04 479.295C1164.87 477.086 1171.07 477.086 1174.9 479.295L1397.07 607.566C1400.9 609.775 1400.9 613.357 1397.07 615.566L1243.87 704.018C1240.04 706.227 1233.84 706.227 1230.01 704.018L1007.84 575.747C1004.02 573.538 1004.02 569.956 1007.84 567.747L1161.04 479.295Z" fill="white" fill-opacity="0.1"/>
<path fill-rule="evenodd" clip-rule="evenodd" d="M1393.61 609.566L1171.44 481.295C1169.52 480.19 1166.42 480.19 1164.51 481.295L1011.31 569.747C1009.39 570.851 1009.39 572.642 1011.31 573.747L1233.48 702.018C1235.39 703.123 1238.49 703.123 1240.41 702.018L1393.61 613.566C1395.52 612.462 1395.52 610.671 1393.61 609.566ZM1174.9 479.295C1171.07 477.086 1164.87 477.086 1161.04 479.295L1007.84 567.747C1004.02 569.956 1004.02 573.538 1007.84 575.747L1230.01 704.018C1233.84 706.227 1240.04 706.227 1243.87 704.018L1397.07 615.566C1400.9 613.357 1400.9 609.775 1397.07 607.566L1174.9 479.295Z" fill="white" fill-opacity="0.1"/>
<path fill-rule="evenodd" clip-rule="evenodd" d="M1384.64 620.087L1153.21 486.471L1156.68 484.471L1388.11 618.087L1384.64 620.087Z" fill="white" fill-opacity="0.1"/>
<path fill-rule="evenodd" clip-rule="evenodd" d="M1228.31 660.792L1082.71 576.729L1086.18 574.729L1231.78 658.792L1228.31 660.792Z" fill="white" fill-opacity="0.1"/>
<path fill-rule="evenodd" clip-rule="evenodd" d="M1235.98 678.49L1052.06 572.305L1055.52 570.305L1239.44 676.49L1235.98 678.49Z" fill="white" fill-opacity="0.1"/>
<path d="M1169.66 485.781C1169.05 486.133 1168.07 486.133 1167.46 485.781C1166.85 485.43 1166.85 484.86 1167.46 484.508C1168.07 484.156 1169.05 484.156 1169.66 484.508C1170.27 484.86 1170.27 485.43 1169.66 485.781Z" fill="white" fill-opacity="0.2"/>
<path d="M1174.08 488.328C1173.47 488.68 1172.48 488.68 1171.87 488.328C1171.26 487.977 1171.26 487.406 1171.87 487.055C1172.48 486.703 1173.47 486.703 1174.08 487.055C1174.68 487.406 1174.68 487.977 1174.08 488.328Z" fill="white" fill-opacity="0.2"/>
<path d="M1178.49 490.876C1177.88 491.228 1176.89 491.228 1176.28 490.876C1175.67 490.524 1175.67 489.954 1176.28 489.603C1176.89 489.251 1177.88 489.251 1178.49 489.603C1179.1 489.954 1179.1 490.524 1178.49 490.876Z" fill="white" fill-opacity="0.2"/>
<path fill-rule="evenodd" clip-rule="evenodd" d="M1171.44 609.566C1188.57 619.458 1216.35 619.458 1233.48 609.566C1250.61 599.675 1250.61 583.638 1233.48 573.747C1216.35 563.855 1188.57 563.855 1171.44 573.747C1154.3 583.638 1154.3 599.675 1171.44 609.566ZM1167.97 611.566C1187.02 622.562 1217.9 622.562 1236.94 611.566C1255.99 600.57 1255.99 582.743 1236.94 571.747C1217.9 560.751 1187.02 560.751 1167.97 571.747C1148.93 582.743 1148.93 600.57 1167.97 611.566Z" fill="white" fill-opacity="0.1"/>
<path fill-rule="evenodd" clip-rule="evenodd" d="M1191.97 593.815L1224.81 593.815L1224.81 596.644L1187.07 596.644L1187.07 585.119L1191.97 585.119L1191.97 593.815Z" fill="white" fill-opacity="0.1"/>
<path d="M1872.47 225.481C1876.3 223.272 1882.5 223.272 1886.33 225.481L2108.5 353.753C2112.33 355.962 2112.33 359.544 2108.5 361.753L1955.3 450.205C1951.47 452.414 1945.27 452.414 1941.44 450.205L1719.27 321.933C1715.44 319.724 1715.44 316.142 1719.27 313.933L1872.47 225.481Z" fill="white" fill-opacity="0.1"/>
<path fill-rule="evenodd" clip-rule="evenodd" d="M2105.04 355.753L1882.86 227.481C1880.95 226.377 1877.85 226.377 1875.93 227.481L1722.73 315.933C1720.82 317.038 1720.82 318.829 1722.73 319.933L1944.9 448.205C1946.82 449.309 1949.92 449.309 1951.83 448.205L2105.04 359.753C2106.95 358.648 2106.95 356.857 2105.04 355.753ZM1886.33 225.481C1882.5 223.272 1876.3 223.272 1872.47 225.481L1719.27 313.933C1715.44 316.142 1715.44 319.724 1719.27 321.933L1941.44 450.205C1945.27 452.414 1951.47 452.414 1955.3 450.205L2108.5 361.753C2112.33 359.544 2112.33 355.962 2108.5 353.753L1886.33 225.481Z" fill="white" fill-opacity="0.1"/>
<path fill-rule="evenodd" clip-rule="evenodd" d="M2096.07 366.274L1864.64 232.658L1868.1 230.658L2099.53 364.274L2096.07 366.274Z" fill="white" fill-opacity="0.1"/>
<path fill-rule="evenodd" clip-rule="evenodd" d="M1939.74 406.979L1794.14 322.915L1797.6 320.915L1943.2 404.979L1939.74 406.979Z" fill="white" fill-opacity="0.1"/>
<path fill-rule="evenodd" clip-rule="evenodd" d="M1947.4 424.676L1763.48 318.491L1766.95 316.491L1950.87 422.676L1947.4 424.676Z" fill="white" fill-opacity="0.1"/>
<path d="M1881.09 231.967C1880.48 232.319 1879.49 232.319 1878.88 231.967C1878.27 231.616 1878.27 231.046 1878.88 230.694C1879.49 230.342 1880.48 230.342 1881.09 230.694C1881.7 231.046 1881.7 231.616 1881.09 231.967Z" fill="white" fill-opacity="0.2"/>
<path d="M1885.5 234.515C1884.89 234.867 1883.9 234.867 1883.29 234.515C1882.69 234.163 1882.69 233.593 1883.29 233.241C1883.9 232.89 1884.89 232.89 1885.5 233.241C1886.11 233.593 1886.11 234.163 1885.5 234.515Z" fill="white" fill-opacity="0.2"/>
<path d="M1889.91 237.062C1889.3 237.413 1888.31 237.413 1887.71 237.062C1887.1 236.71 1887.1 236.14 1887.71 235.788C1888.31 235.436 1889.3 235.436 1889.91 235.788C1890.52 236.14 1890.52 236.71 1889.91 237.062Z" fill="white" fill-opacity="0.2"/>
<path fill-rule="evenodd" clip-rule="evenodd" d="M1882.86 355.753C1899.99 365.644 1927.77 365.644 1944.9 355.753C1962.04 345.861 1962.04 329.825 1944.9 319.933C1927.77 310.042 1899.99 310.042 1882.86 319.933C1865.73 329.825 1865.73 345.861 1882.86 355.753ZM1879.4 357.753C1898.44 368.749 1929.32 368.749 1948.37 357.753C1967.41 346.757 1967.41 328.929 1948.37 317.933C1929.32 306.937 1898.44 306.937 1879.4 317.933C1860.35 328.929 1860.35 346.757 1879.4 357.753Z" fill="white" fill-opacity="0.1"/>
<path fill-rule="evenodd" clip-rule="evenodd" d="M1903.39 340.002L1936.24 340.002L1936.24 342.83L1898.49 342.83L1898.49 331.306L1903.39 331.306L1903.39 340.002Z" fill="white" fill-opacity="0.1"/>
<path d="M1805.95 403.992C1809.78 401.783 1815.98 401.783 1819.81 403.992L2041.98 532.264C2045.81 534.473 2045.81 538.054 2041.98 540.264L1888.78 628.715C1884.95 630.925 1878.75 630.925 1874.92 628.715L1652.75 500.444C1648.92 498.235 1648.92 494.653 1652.75 492.444L1805.95 403.992Z" fill="white" fill-opacity="0.1"/>
<path fill-rule="evenodd" clip-rule="evenodd" d="M2038.52 534.264L1816.34 405.992C1814.43 404.888 1811.33 404.888 1809.41 405.992L1656.21 494.444C1654.3 495.549 1654.3 497.339 1656.21 498.444L1878.38 626.715C1880.3 627.82 1883.4 627.82 1885.31 626.715L2038.52 538.264C2040.43 537.159 2040.43 535.368 2038.52 534.264ZM1819.81 403.992C1815.98 401.783 1809.78 401.783 1805.95 403.992L1652.75 492.444C1648.92 494.653 1648.92 498.235 1652.75 500.444L1874.92 628.715C1878.75 630.925 1884.95 630.925 1888.78 628.715L2041.98 540.264C2045.81 538.054 2045.81 534.473 2041.98 532.264L1819.81 403.992Z" fill="white" fill-opacity="0.1"/>
<path fill-rule="evenodd" clip-rule="evenodd" d="M2029.55 544.785L1798.12 411.168L1801.58 409.168L2033.01 542.785L2029.55 544.785Z" fill="white" fill-opacity="0.1"/>
<path fill-rule="evenodd" clip-rule="evenodd" d="M1873.22 585.489L1727.62 501.426L1731.08 499.426L1876.68 583.489L1873.22 585.489Z" fill="white" fill-opacity="0.1"/>
<path fill-rule="evenodd" clip-rule="evenodd" d="M1880.88 603.187L1696.96 497.002L1700.43 495.002L1884.35 601.187L1880.88 603.187Z" fill="white" fill-opacity="0.1"/>
<path d="M1814.57 410.479C1813.96 410.83 1812.97 410.83 1812.36 410.479C1811.75 410.127 1811.75 409.557 1812.36 409.205C1812.97 408.853 1813.96 408.853 1814.57 409.205C1815.18 409.557 1815.18 410.127 1814.57 410.479Z" fill="white" fill-opacity="0.2"/>
<path d="M1818.98 413.026C1818.37 413.377 1817.38 413.377 1816.77 413.026C1816.17 412.674 1816.17 412.104 1816.77 411.752C1817.38 411.4 1818.37 411.4 1818.98 411.752C1819.59 412.104 1819.59 412.674 1818.98 413.026Z" fill="white" fill-opacity="0.2"/>
<path d="M1823.39 415.573C1822.78 415.925 1821.8 415.925 1821.19 415.573C1820.58 415.222 1820.58 414.652 1821.19 414.3C1821.8 413.948 1822.78 413.948 1823.39 414.3C1824 414.652 1824 415.222 1823.39 415.573Z" fill="white" fill-opacity="0.2"/>
<path fill-rule="evenodd" clip-rule="evenodd" d="M1816.34 534.264C1833.47 544.155 1861.25 544.155 1878.38 534.264C1895.52 524.372 1895.52 508.335 1878.38 498.444C1861.25 488.553 1833.47 488.553 1816.34 498.444C1799.21 508.335 1799.21 524.372 1816.34 534.264ZM1812.88 536.264C1831.92 547.259 1862.8 547.259 1881.85 536.264C1900.89 525.268 1900.89 507.44 1881.85 496.444C1862.8 485.448 1831.92 485.448 1812.88 496.444C1793.83 507.44 1793.83 525.268 1812.88 536.264Z" fill="white" fill-opacity="0.1"/>
<path fill-rule="evenodd" clip-rule="evenodd" d="M1836.87 518.512L1869.72 518.512L1869.72 521.341L1831.97 521.341L1831.97 509.816L1836.87 509.816L1836.87 518.512Z" fill="white" fill-opacity="0.1"/>
<path d="M1492.37 444.932C1496.2 442.722 1502.4 442.723 1506.23 444.932L1728.4 573.203C1732.23 575.412 1732.23 578.994 1728.4 581.203L1575.2 669.655C1571.37 671.864 1565.17 671.864 1561.34 669.655L1339.17 541.383C1335.34 539.174 1335.34 535.593 1339.17 533.383L1492.37 444.932Z" fill="white" fill-opacity="0.1"/>
<path fill-rule="evenodd" clip-rule="evenodd" d="M1724.94 575.203L1502.76 446.932C1500.85 445.827 1497.75 445.827 1495.84 446.932L1342.63 535.383C1340.72 536.488 1340.72 538.279 1342.63 539.383L1564.81 667.655C1566.72 668.759 1569.82 668.759 1571.73 667.655L1724.94 579.203C1726.85 578.098 1726.85 576.308 1724.94 575.203ZM1506.23 444.932C1502.4 442.723 1496.2 442.722 1492.37 444.932L1339.17 533.383C1335.34 535.593 1335.34 539.174 1339.17 541.383L1561.34 669.655C1565.17 671.864 1571.37 671.864 1575.2 669.655L1728.4 581.203C1732.23 578.994 1732.23 575.412 1728.4 573.203L1506.23 444.932Z" fill="white" fill-opacity="0.1"/>
<path fill-rule="evenodd" clip-rule="evenodd" d="M1715.97 585.724L1484.54 452.107L1488 450.107L1719.43 583.724L1715.97 585.724Z" fill="white" fill-opacity="0.1"/>
<path fill-rule="evenodd" clip-rule="evenodd" d="M1559.64 626.429L1414.04 542.365L1417.5 540.365L1563.1 624.429L1559.64 626.429Z" fill="white" fill-opacity="0.1"/>
<path fill-rule="evenodd" clip-rule="evenodd" d="M1567.3 644.127L1383.39 537.941L1386.85 535.941L1570.77 642.127L1567.3 644.127Z" fill="white" fill-opacity="0.1"/>
<path d="M1500.99 451.418C1500.38 451.77 1499.39 451.77 1498.78 451.418C1498.17 451.066 1498.17 450.496 1498.78 450.145C1499.39 449.793 1500.38 449.793 1500.99 450.145C1501.6 450.496 1501.6 451.066 1500.99 451.418Z" fill="white" fill-opacity="0.2"/>
<path d="M1505.4 453.965C1504.79 454.317 1503.81 454.317 1503.2 453.965C1502.59 453.613 1502.59 453.043 1503.2 452.691C1503.81 452.34 1504.79 452.34 1505.4 452.691C1506.01 453.043 1506.01 453.613 1505.4 453.965Z" fill="white" fill-opacity="0.2"/>
<path d="M1509.81 456.513C1509.2 456.865 1508.22 456.865 1507.61 456.513C1507 456.161 1507 455.591 1507.61 455.239C1508.22 454.888 1509.2 454.888 1509.81 455.239C1510.42 455.591 1510.42 456.161 1509.81 456.513Z" fill="white" fill-opacity="0.2"/>
<path fill-rule="evenodd" clip-rule="evenodd" d="M1502.76 575.203C1519.9 585.094 1547.67 585.094 1564.8 575.203C1581.94 565.312 1581.94 549.275 1564.8 539.383C1547.67 529.492 1519.9 529.492 1502.76 539.383C1485.63 549.275 1485.63 565.312 1502.76 575.203ZM1499.3 577.203C1518.34 588.199 1549.22 588.199 1568.27 577.203C1587.31 566.207 1587.31 548.379 1568.27 537.383C1549.22 526.388 1518.34 526.388 1499.3 537.383C1480.25 548.379 1480.25 566.207 1499.3 577.203Z" fill="white" fill-opacity="0.1"/>
<path fill-rule="evenodd" clip-rule="evenodd" d="M1523.29 559.452L1556.14 559.452L1556.14 562.28L1518.39 562.28L1518.39 550.756L1523.29 550.756L1523.29 559.452Z" fill="white" fill-opacity="0.1"/>
<path d="M1420.06 628.839C1423.89 626.63 1430.09 626.63 1433.92 628.839L1656.09 757.11C1659.92 759.319 1659.92 762.901 1656.09 765.11L1502.89 853.562C1499.06 855.771 1492.86 855.771 1489.03 853.562L1266.86 725.291C1263.03 723.082 1263.03 719.5 1266.86 717.291L1420.06 628.839Z" fill="white" fill-opacity="0.1"/>
<path fill-rule="evenodd" clip-rule="evenodd" d="M1652.63 759.11L1430.46 630.839C1428.54 629.734 1425.44 629.734 1423.53 630.839L1270.33 719.291C1268.41 720.395 1268.41 722.186 1270.33 723.291L1492.5 851.562C1494.41 852.667 1497.51 852.667 1499.43 851.562L1652.63 763.11C1654.54 762.006 1654.54 760.215 1652.63 759.11ZM1433.92 628.839C1430.09 626.63 1423.89 626.63 1420.06 628.839L1266.86 717.291C1263.03 719.5 1263.03 723.082 1266.86 725.291L1489.03 853.562C1492.86 855.771 1499.06 855.771 1502.89 853.562L1656.09 765.11C1659.92 762.901 1659.92 759.319 1656.09 757.11L1433.92 628.839Z" fill="white" fill-opacity="0.1"/>
<path fill-rule="evenodd" clip-rule="evenodd" d="M1643.66 769.631L1412.23 636.015L1415.7 634.015L1647.13 767.631L1643.66 769.631Z" fill="white" fill-opacity="0.1"/>
<path fill-rule="evenodd" clip-rule="evenodd" d="M1487.33 810.336L1341.73 726.272L1345.2 724.272L1490.8 808.336L1487.33 810.336Z" fill="white" fill-opacity="0.1"/>
<path fill-rule="evenodd" clip-rule="evenodd" d="M1495 828.034L1311.08 721.849L1314.54 719.849L1498.46 826.034L1495 828.034Z" fill="white" fill-opacity="0.1"/>
<path d="M1428.68 635.325C1428.07 635.677 1427.09 635.677 1426.48 635.325C1425.87 634.974 1425.87 634.404 1426.48 634.052C1427.09 633.7 1428.07 633.7 1428.68 634.052C1429.29 634.404 1429.29 634.974 1428.68 635.325Z" fill="white" fill-opacity="0.2"/>
<path d="M1433.1 637.872C1432.49 638.224 1431.5 638.224 1430.89 637.872C1430.28 637.521 1430.28 636.95 1430.89 636.599C1431.5 636.247 1432.49 636.247 1433.1 636.599C1433.7 636.95 1433.7 637.521 1433.1 637.872Z" fill="white" fill-opacity="0.2"/>
<path d="M1437.51 640.42C1436.9 640.772 1435.91 640.772 1435.3 640.42C1434.69 640.068 1434.69 639.498 1435.3 639.147C1435.91 638.795 1436.9 638.795 1437.51 639.147C1438.12 639.498 1438.12 640.068 1437.51 640.42Z" fill="white" fill-opacity="0.2"/>
<path fill-rule="evenodd" clip-rule="evenodd" d="M1430.46 759.11C1447.59 769.001 1475.36 769.001 1492.5 759.11C1509.63 749.219 1509.63 733.182 1492.5 723.291C1475.36 713.399 1447.59 713.399 1430.46 723.291C1413.32 733.182 1413.32 749.219 1430.46 759.11ZM1426.99 761.11C1446.04 772.106 1476.92 772.106 1495.96 761.11C1515.01 750.114 1515.01 732.287 1495.96 721.291C1476.92 710.295 1446.04 710.295 1426.99 721.291C1407.95 732.287 1407.95 750.114 1426.99 761.11Z" fill="white" fill-opacity="0.1"/>
<path fill-rule="evenodd" clip-rule="evenodd" d="M1450.98 743.359L1483.83 743.359L1483.83 746.188L1446.09 746.188L1446.09 734.663L1450.98 734.663L1450.98 743.359Z" fill="white" fill-opacity="0.1"/>
<path d="M2064.97 553.536C2068.8 551.327 2075 551.327 2078.83 553.536L2301 681.808C2304.82 684.017 2304.82 687.598 2301 689.808L2147.8 778.259C2143.97 780.468 2137.77 780.468 2133.94 778.259L1911.77 649.988C1907.94 647.779 1907.94 644.197 1911.77 641.988L2064.97 553.536Z" fill="white" fill-opacity="0.1"/>
<path fill-rule="evenodd" clip-rule="evenodd" d="M2297.53 683.808L2075.36 555.536C2073.45 554.432 2070.35 554.432 2068.43 555.536L1915.23 643.988C1913.32 645.093 1913.32 646.883 1915.23 647.988L2137.4 776.259C2139.32 777.364 2142.42 777.364 2144.33 776.259L2297.53 687.808C2299.45 686.703 2299.45 684.912 2297.53 683.808ZM2078.83 553.536C2075 551.327 2068.8 551.327 2064.97 553.536L1911.77 641.988C1907.94 644.197 1907.94 647.779 1911.77 649.988L2133.94 778.259C2137.77 780.468 2143.97 780.468 2147.8 778.259L2301 689.808C2304.82 687.598 2304.82 684.017 2301 681.808L2078.83 553.536Z" fill="white" fill-opacity="0.1"/>
<path d="M1751.39 594.476C1755.22 592.266 1761.42 592.266 1765.25 594.476L1987.42 722.747C1991.25 724.956 1991.25 728.538 1987.42 730.747L1834.22 819.199C1830.39 821.408 1824.19 821.408 1820.36 819.199L1598.19 690.927C1594.36 688.718 1594.36 685.137 1598.19 682.927L1751.39 594.476Z" fill="white" fill-opacity="0.1"/>
<path fill-rule="evenodd" clip-rule="evenodd" d="M1983.95 724.747L1761.78 596.476C1759.87 595.371 1756.77 595.371 1754.85 596.476L1601.65 684.927C1599.74 686.032 1599.74 687.823 1601.65 688.927L1823.82 817.199C1825.74 818.303 1828.84 818.303 1830.75 817.199L1983.95 728.747C1985.87 727.642 1985.87 725.852 1983.95 724.747ZM1765.25 594.476C1761.42 592.266 1755.22 592.266 1751.39 594.476L1598.19 682.927C1594.36 685.137 1594.36 688.718 1598.19 690.927L1820.36 819.199C1824.19 821.408 1830.39 821.408 1834.22 819.199L1987.42 730.747C1991.25 728.538 1991.25 724.956 1987.42 722.747L1765.25 594.476Z" fill="white" fill-opacity="0.1"/>
<path fill-rule="evenodd" clip-rule="evenodd" d="M1974.99 735.268L1743.56 601.651L1747.02 599.651L1978.45 733.268L1974.99 735.268Z" fill="white" fill-opacity="0.1"/>
<path fill-rule="evenodd" clip-rule="evenodd" d="M1818.66 775.973L1673.06 691.909L1676.52 689.909L1822.12 773.973L1818.66 775.973Z" fill="white" fill-opacity="0.1"/>
<path fill-rule="evenodd" clip-rule="evenodd" d="M1826.32 793.671L1642.4 687.485L1645.87 685.485L1829.79 791.671L1826.32 793.671Z" fill="white" fill-opacity="0.1"/>
<path d="M1760.01 600.962C1759.4 601.314 1758.41 601.314 1757.8 600.962C1757.19 600.61 1757.19 600.04 1757.8 599.689C1758.41 599.337 1759.4 599.337 1760.01 599.689C1760.62 600.04 1760.62 600.61 1760.01 600.962Z" fill="white" fill-opacity="0.2"/>
<path d="M1764.42 603.509C1763.81 603.861 1762.82 603.861 1762.21 603.509C1761.61 603.157 1761.61 602.587 1762.21 602.235C1762.82 601.884 1763.81 601.884 1764.42 602.235C1765.03 602.587 1765.03 603.157 1764.42 603.509Z" fill="white" fill-opacity="0.2"/>
<path d="M1768.83 606.057C1768.22 606.409 1767.23 606.409 1766.63 606.057C1766.02 605.705 1766.02 605.135 1766.63 604.783C1767.23 604.432 1768.22 604.432 1768.83 604.783C1769.44 605.135 1769.44 605.705 1768.83 606.057Z" fill="white" fill-opacity="0.2"/>
<path fill-rule="evenodd" clip-rule="evenodd" d="M1761.78 724.747C1778.91 734.638 1806.69 734.638 1823.82 724.747C1840.96 714.856 1840.96 698.819 1823.82 688.927C1806.69 679.036 1778.91 679.036 1761.78 688.927C1744.65 698.819 1744.65 714.856 1761.78 724.747ZM1758.32 726.747C1777.36 737.743 1808.24 737.743 1827.29 726.747C1846.33 715.751 1846.33 697.923 1827.29 686.927C1808.24 675.931 1777.36 675.931 1758.32 686.927C1739.27 697.923 1739.27 715.751 1758.32 726.747Z" fill="white" fill-opacity="0.1"/>
<path fill-rule="evenodd" clip-rule="evenodd" d="M1782.31 708.996L1815.16 708.996L1815.16 711.824L1777.41 711.824L1777.41 700.3L1782.31 700.3L1782.31 708.996Z" fill="white" fill-opacity="0.1"/>
<path d="M1679.08 778.384C1682.91 776.175 1689.11 776.175 1692.94 778.384L1915.11 906.655C1918.94 908.864 1918.94 912.446 1915.11 914.655L1761.91 1003.11C1758.08 1005.32 1751.88 1005.32 1748.05 1003.11L1525.88 874.836C1522.05 872.626 1522.05 869.045 1525.88 866.836L1679.08 778.384Z" fill="white" fill-opacity="0.1"/>
<path fill-rule="evenodd" clip-rule="evenodd" d="M1911.65 908.655L1689.47 780.384C1687.56 779.279 1684.46 779.279 1682.55 780.384L1529.34 868.836C1527.43 869.94 1527.43 871.731 1529.34 872.836L1751.52 1001.11C1753.43 1002.21 1756.53 1002.21 1758.44 1001.11L1911.65 912.655C1913.56 911.551 1913.56 909.76 1911.65 908.655ZM1692.94 778.384C1689.11 776.175 1682.91 776.175 1679.08 778.384L1525.88 866.836C1522.05 869.045 1522.05 872.626 1525.88 874.836L1748.05 1003.11C1751.88 1005.32 1758.08 1005.32 1761.91 1003.11L1915.11 914.655C1918.94 912.446 1918.94 908.864 1915.11 906.655L1692.94 778.384Z" fill="white" fill-opacity="0.1"/>
<circle opacity="0.1" cx="405.5" cy="182.5" r="40.5" fill="url(#paint1_linear_792_875)"/>
<circle opacity="0.1" cx="770.5" cy="322.5" r="19.5" fill="url(#paint2_linear_792_875)"/>
<circle opacity="0.1" cx="1687.5" cy="2.5" r="26.5" fill="url(#paint3_linear_792_875)"/>
<circle opacity="0.1" cx="353.5" cy="108.5" r="11.5" fill="url(#paint4_linear_792_875)"/>
</g>
<defs>
<linearGradient id="paint0_linear_792_875" x1="1920" y1="779" x2="1682.08" y2="-229.711" gradientUnits="userSpaceOnUse">
<stop stop-color="#8770FF"/>
<stop offset="1" stop-color="#AA9AFF"/>
</linearGradient>
<linearGradient id="paint1_linear_792_875" x1="405.5" y1="142" x2="405.5" y2="223" gradientUnits="userSpaceOnUse">
<stop stop-color="white"/>
<stop offset="1" stop-color="white" stop-opacity="0"/>
</linearGradient>
<linearGradient id="paint2_linear_792_875" x1="770.5" y1="303" x2="770.5" y2="342" gradientUnits="userSpaceOnUse">
<stop stop-color="white"/>
<stop offset="1" stop-color="white" stop-opacity="0"/>
</linearGradient>
<linearGradient id="paint3_linear_792_875" x1="1687.5" y1="-24" x2="1687.5" y2="29" gradientUnits="userSpaceOnUse">
<stop stop-color="white"/>
<stop offset="1" stop-color="white" stop-opacity="0"/>
</linearGradient>
<linearGradient id="paint4_linear_792_875" x1="353.5" y1="97" x2="353.5" y2="120" gradientUnits="userSpaceOnUse">
<stop stop-color="white"/>
<stop offset="1" stop-color="white" stop-opacity="0"/>
</linearGradient>
<clipPath id="clip0_792_875">
<rect width="1920" height="779" fill="white"/>
</clipPath>
</defs>
</svg>
