<svg width="1614" height="651" viewBox="0 0 1614 651" fill="none" xmlns="http://www.w3.org/2000/svg">
<rect x="210" y="519" width="805" height="1" fill="white"/>
<rect x="417" y="439" width="602.011" height="1" fill="white"/>
<rect y="599" width="1014" height="1" fill="white"/>
<path fill-rule="evenodd" clip-rule="evenodd" d="M1010.95 598.996C1118.77 598.202 1226.17 574.055 1308.44 526.556C1475.78 429.943 1475.78 273.303 1308.44 176.69C1141.1 80.077 869.795 80.077 702.456 176.69C635.165 215.541 594.933 264.098 581.761 314.556L579.694 315.749C592.552 264.605 633.062 215.332 701.224 175.979C869.243 78.9731 1141.66 78.9731 1309.67 175.979C1477.69 272.984 1477.69 430.262 1309.67 527.267C1226.62 575.221 1118.05 599.47 1009.19 600.012L1010.95 598.996Z" fill="white"/>
<path fill-rule="evenodd" clip-rule="evenodd" d="M1014.44 518.991C1085.41 517.725 1155.73 501.453 1209.91 470.176C1322.83 404.982 1322.83 299.281 1209.91 234.087C1096.99 168.893 913.91 168.893 800.99 234.087C772.983 250.257 751.923 268.918 737.809 288.836L734.676 290.645C748.864 269.785 770.559 250.234 799.759 233.376C913.358 167.789 1097.54 167.789 1211.14 233.376C1324.74 298.963 1324.74 405.3 1211.14 470.887C1156.17 502.624 1084.67 519.003 1012.64 520.026L1014.44 518.991Z" fill="white"/>
<path fill-rule="evenodd" clip-rule="evenodd" d="M1015.26 438.987C1050.26 437.669 1084.62 429.286 1111.37 413.839C1169.87 380.064 1169.87 325.304 1111.37 291.528C1052.87 257.753 958.025 257.753 899.525 291.528C895.112 294.076 891.032 296.743 887.285 299.512L886.044 298.795C889.798 296.03 893.881 293.365 898.293 290.817C957.474 256.649 1053.42 256.649 1112.61 290.817C1171.79 324.985 1171.79 380.383 1112.61 414.551C1085.04 430.466 1049.49 438.968 1013.4 440.057L1015.26 438.987Z" fill="white"/>
<g opacity="0.2" clip-path="url(#clip0_447_7427)" filter="url(#filter0_f_447_7427)">
<path d="M1115.56 362.78L1115.66 385.38H966.759L966.459 336.88H1005.46L1005.66 362.78H1115.56Z" fill="#7965E5"/>
<path d="M1139.96 303.68C1198.26 337.28 1198.56 392.08 1140.66 425.78C1082.76 459.48 988.259 459.38 929.959 425.78C871.659 392.08 871.359 337.38 929.259 303.68C987.159 269.98 1081.66 269.98 1139.96 303.68ZM957.359 409.78C1000.36 434.58 1070.16 434.58 1112.96 409.78C1155.66 384.98 1155.46 344.48 1112.46 319.68C1069.46 294.88 999.659 294.88 956.859 319.68C914.159 344.48 914.359 384.88 957.359 409.78Z" fill="#7965E5"/>
<path d="M1316.16 394.78C1315.06 395.48 1288.76 412.18 1246.66 431.98C1189.86 458.78 1134.06 477.68 1080.66 488.08C952.759 512.98 834.159 492.68 829.159 491.88L819.159 490.08L816.059 484.28C814.559 481.38 779.059 412.78 821.759 338.58C839.559 307.58 871.959 275.18 918.059 242.18C952.159 217.78 980.859 202.48 982.059 201.88L991.659 196.78L1217.96 258.28L1324.96 389.18L1316.16 394.78ZM1068.16 466.68C1165.06 447.78 1251.16 400.88 1278.36 384.98L1188.76 275.28L999.259 223.78C971.859 239.58 891.159 289.58 858.759 345.78C826.959 401.18 843.559 454.28 850.759 471.78C862.559 473.38 883.859 475.78 910.959 477.08C949.359 478.78 1007.86 478.38 1068.16 466.68Z" fill="#7965E5"/>
</g>
<g clip-path="url(#clip1_447_7427)">
<path d="M1175.12 147.231L1175.02 174.312L989.207 123.962L989.305 96.8807L1175.12 147.231Z" fill="#6D63DE"/>
<path d="M1103.93 219.969C1117.07 228.28 1129.23 240.696 1131.58 256.632C1131.88 258.49 1131.97 260.249 1131.97 262.107L1132.07 235.026C1132.07 231.506 1131.58 227.986 1130.6 224.565C1126.58 210.877 1115.8 200.416 1104.03 192.888C1070.2 172.064 1024.7 168.348 986.364 176.365C958.516 182.329 921.158 198.852 916.745 230.333C916.255 232.484 916.549 258.685 916.451 261.52C916.451 252.624 919.883 244.02 925.276 236.981C935.18 223.88 949.986 215.472 965.086 209.704C1007.54 193.866 1064.91 195.821 1103.93 219.969Z" fill="url(#paint0_linear_447_7427)"/>
<path d="M1262.98 254.383L1262.88 281.465L1175.02 174.312L1175.12 147.231L1262.98 254.383Z" fill="url(#paint1_linear_447_7427)"/>
<path d="M957.438 254.872L957.34 281.954L957.046 234.537L957.144 207.455L957.438 254.872Z" fill="#AD9EFF"/>
<g filter="url(#filter1_i_447_7427)">
<path d="M1103.34 232.777L1103.44 254.872H957.438L957.144 207.455H995.385L995.581 232.777H1103.34Z" fill="url(#paint2_linear_447_7427)"/>
</g>
<path d="M1103.44 254.872L1103.34 281.954H957.34L957.438 254.872H1103.44Z" fill="#6A5EE9"/>
<path d="M854.481 238.252C875.269 206.184 905.077 181.156 935.572 158.669C950.672 147.72 966.263 137.552 982.246 127.971C984.599 126.602 986.909 125.295 989.263 123.927L989.341 96.864C985.026 99.3082 980.775 101.769 976.559 104.409C948.613 121.518 921.648 140.583 897.233 162.58C859.188 196.603 833.007 235.026 833.105 284.398L833.007 311.479C832.811 290.166 839.087 262.107 854.481 238.252Z" fill="url(#paint3_linear_447_7427)"/>
<path d="M1154.72 299.845C1162.67 290.851 1168.45 279.705 1169.82 267.68C1170.61 263.867 1170.02 239.327 1170.22 235.026C1170.22 242.065 1168.65 249.006 1165.8 255.459C1150.21 289.971 1107.07 307.471 1071.97 314.412C1029.51 322.527 984.501 320.083 943.907 304.929C923.511 297.01 903.606 285.571 890.173 267.875C882.917 258.196 878.112 246.367 878.21 234.146L878.112 261.227C878.701 299.356 917.432 323.016 949.79 334.161C994.993 349.315 1046.28 349.902 1091.97 336.508C1115.4 329.469 1138.45 318.323 1154.72 299.845Z" fill="url(#paint4_linear_447_7427)"/>
<g filter="url(#filter2_i_447_7427)">
<path d="M1127.27 174.997C1184.43 207.846 1184.73 261.423 1127.95 294.37C1071.18 327.318 978.52 327.22 921.354 294.37C864.189 261.423 863.895 207.944 920.668 174.997C977.441 142.049 1070.1 142.049 1127.27 174.997ZM948.221 278.727C990.384 302.974 1058.83 302.974 1100.79 278.727C1142.66 254.481 1142.47 214.886 1100.3 190.639C1058.14 166.393 989.698 166.393 947.731 190.639C905.862 214.886 906.058 254.383 948.221 278.727Z" fill="url(#paint5_linear_447_7427)"/>
</g>
<path d="M1300.04 264.062C1274.35 279.803 1247.38 293.49 1219.93 306.004C1181 323.602 1140.7 338.17 1099.32 348.533C1049.9 360.95 998.817 366.522 947.927 367.304C915.471 367.793 882.917 366.327 850.559 362.709C838.008 361.341 825.163 359.483 812.71 357.234C807.807 348.533 803.885 338.952 801.14 329.371C794.766 284.496 794.766 284.496 794.766 284.496C796.923 314.803 794.766 299.65 794.766 284.496C794.57 289.873 794.668 313.532 794.864 318.421C795.845 339.147 800.453 359.874 809.572 378.45C809.67 378.548 809.67 378.645 809.67 378.743L812.71 384.414C819.476 385.685 827.614 387.053 834.38 387.933C874.484 393.31 914.98 395.266 955.477 394.288C1003.62 393.115 1051.86 387.542 1098.64 375.908C1156.68 361.341 1212.48 338.756 1265.43 310.893C1277.19 304.636 1288.76 298.183 1300.04 291.242L1308.67 285.767L1308.77 258.685L1300.04 264.062Z" fill="url(#paint6_linear_447_7427)"/>
<g filter="url(#filter3_i_447_7427)">
<path d="M1300.04 264.062C1298.96 264.747 1273.17 281.074 1231.89 300.432C1176.2 326.633 1121.48 345.111 1069.12 355.279C943.711 379.623 827.419 359.776 822.516 358.896L812.711 357.137L809.671 351.466C808.201 348.631 773.391 281.563 815.26 209.02C832.714 178.712 864.484 147.035 909.687 114.772C943.123 90.9169 971.265 75.9586 972.441 75.2742L981.854 70.2881L1203.75 130.415L1308.67 258.392L1300.04 264.062ZM1056.87 334.357C1151.88 315.879 1236.31 270.026 1262.98 254.481L1175.12 147.231L989.307 96.8807C962.44 112.328 883.31 161.211 851.54 216.157C820.359 270.32 836.636 322.234 843.696 339.343C855.267 340.907 876.152 343.254 902.725 344.525C940.378 346.187 997.739 345.796 1056.87 334.357Z" fill="url(#paint7_linear_447_7427)"/>
</g>
<circle opacity="0.2" cx="1132.07" cy="230.579" r="53.6522" fill="url(#paint8_radial_447_7427)"/>
</g>
<defs>
<filter id="filter0_f_447_7427" x="796.859" y="192.78" width="532.1" height="311.7" filterUnits="userSpaceOnUse" color-interpolation-filters="sRGB">
<feFlood flood-opacity="0" result="BackgroundImageFix"/>
<feBlend mode="normal" in="SourceGraphic" in2="BackgroundImageFix" result="shape"/>
<feGaussianBlur stdDeviation="2" result="effect1_foregroundBlur_447_7427"/>
</filter>
<filter id="filter1_i_447_7427" x="957.144" y="207.455" width="147.297" height="47.417" filterUnits="userSpaceOnUse" color-interpolation-filters="sRGB">
<feFlood flood-opacity="0" result="BackgroundImageFix"/>
<feBlend mode="normal" in="SourceGraphic" in2="BackgroundImageFix" result="shape"/>
<feColorMatrix in="SourceAlpha" type="matrix" values="0 0 0 0 0 0 0 0 0 0 0 0 0 0 0 0 0 0 127 0" result="hardAlpha"/>
<feOffset dx="1"/>
<feGaussianBlur stdDeviation="0.5"/>
<feComposite in2="hardAlpha" operator="arithmetic" k2="-1" k3="1"/>
<feColorMatrix type="matrix" values="0 0 0 0 1 0 0 0 0 1 0 0 0 0 1 0 0 0 1 0"/>
<feBlend mode="normal" in2="shape" result="effect1_innerShadow_447_7427"/>
</filter>
<filter id="filter2_i_447_7427" x="878.283" y="150.286" width="293.056" height="168.758" filterUnits="userSpaceOnUse" color-interpolation-filters="sRGB">
<feFlood flood-opacity="0" result="BackgroundImageFix"/>
<feBlend mode="normal" in="SourceGraphic" in2="BackgroundImageFix" result="shape"/>
<feColorMatrix in="SourceAlpha" type="matrix" values="0 0 0 0 0 0 0 0 0 0 0 0 0 0 0 0 0 0 127 0" result="hardAlpha"/>
<feOffset dx="1"/>
<feGaussianBlur stdDeviation="0.5"/>
<feComposite in2="hardAlpha" operator="arithmetic" k2="-1" k3="1"/>
<feColorMatrix type="matrix" values="0 0 0 0 1 0 0 0 0 1 0 0 0 0 1 0 0 0 1 0"/>
<feBlend mode="normal" in2="shape" result="effect1_innerShadow_447_7427"/>
</filter>
<filter id="filter3_i_447_7427" x="794.704" y="70.2881" width="514.965" height="297.066" filterUnits="userSpaceOnUse" color-interpolation-filters="sRGB">
<feFlood flood-opacity="0" result="BackgroundImageFix"/>
<feBlend mode="normal" in="SourceGraphic" in2="BackgroundImageFix" result="shape"/>
<feColorMatrix in="SourceAlpha" type="matrix" values="0 0 0 0 0 0 0 0 0 0 0 0 0 0 0 0 0 0 127 0" result="hardAlpha"/>
<feOffset dx="1"/>
<feGaussianBlur stdDeviation="0.5"/>
<feComposite in2="hardAlpha" operator="arithmetic" k2="-1" k3="1"/>
<feColorMatrix type="matrix" values="0 0 0 0 1 0 0 0 0 1 0 0 0 0 1 0 0 0 1 0"/>
<feBlend mode="normal" in2="shape" result="effect1_innerShadow_447_7427"/>
</filter>
<linearGradient id="paint0_linear_447_7427" x1="975.954" y1="172.449" x2="1160.07" y2="183.622" gradientUnits="userSpaceOnUse">
<stop stop-color="#6C61E7"/>
<stop offset="0.498015" stop-color="#7F6CF2"/>
<stop offset="1" stop-color="#BBAFFE"/>
</linearGradient>
<linearGradient id="paint1_linear_447_7427" x1="1165.84" y1="166.035" x2="1219.03" y2="310.523" gradientUnits="userSpaceOnUse">
<stop stop-color="#675BE2"/>
<stop offset="0.452139" stop-color="#7F6CF2"/>
<stop offset="1" stop-color="#BBAFFE"/>
</linearGradient>
<linearGradient id="paint2_linear_447_7427" x1="965.824" y1="94.7503" x2="872.283" y2="229.429" gradientUnits="userSpaceOnUse">
<stop stop-color="#D4CCFF"/>
<stop offset="1" stop-color="#9783FF"/>
</linearGradient>
<linearGradient id="paint3_linear_447_7427" x1="989.305" y1="117.643" x2="1022.81" y2="164.463" gradientUnits="userSpaceOnUse">
<stop stop-color="#6B61DF"/>
<stop offset="0.864598" stop-color="#7F6CF2"/>
<stop offset="1" stop-color="#BBAFFE"/>
</linearGradient>
<linearGradient id="paint4_linear_447_7427" x1="1061.5" y1="329.14" x2="925.687" y2="425.197" gradientUnits="userSpaceOnUse">
<stop stop-color="#695DE0"/>
<stop offset="0.498015" stop-color="#7F6CF2"/>
<stop offset="1" stop-color="#BBAFFE"/>
</linearGradient>
<linearGradient id="paint5_linear_447_7427" x1="974.679" y1="92.1223" x2="957.739" y2="315.239" gradientUnits="userSpaceOnUse">
<stop stop-color="#D4CCFF"/>
<stop offset="1" stop-color="#9783FF"/>
</linearGradient>
<linearGradient id="paint6_linear_447_7427" x1="986.866" y1="563.885" x2="812.616" y2="581.117" gradientUnits="userSpaceOnUse">
<stop stop-color="#665BD7"/>
<stop offset="0.864598" stop-color="#7F6CF2"/>
<stop offset="1" stop-color="#BBAFFE"/>
</linearGradient>
<linearGradient id="paint7_linear_447_7427" x1="892.736" y1="87.4557" x2="977.734" y2="398.022" gradientUnits="userSpaceOnUse">
<stop stop-color="#D4CCFF"/>
<stop offset="1" stop-color="#9783FF"/>
</linearGradient>
<radialGradient id="paint8_radial_447_7427" cx="0" cy="0" r="1" gradientUnits="userSpaceOnUse" gradientTransform="translate(1132.07 230.579) rotate(90) scale(53.6522)">
<stop stop-color="white"/>
<stop offset="0.140625" stop-color="white" stop-opacity="0.53"/>
<stop offset="0.265625" stop-color="white" stop-opacity="0.33"/>
<stop offset="0.494792" stop-color="white" stop-opacity="0.2"/>
<stop offset="0.739583" stop-color="white" stop-opacity="0"/>
<stop offset="1" stop-color="white" stop-opacity="0"/>
</radialGradient>
<clipPath id="clip0_447_7427">
<rect width="524.1" height="303.7" fill="white" transform="translate(800.859 196.78)"/>
</clipPath>
<clipPath id="clip1_447_7427">
<rect width="514" height="324" fill="white" transform="translate(794.668 70.4836)"/>
</clipPath>
</defs>
</svg>
