<svg width="36" height="36" viewBox="0 0 236 235" fill="none" xmlns="http://www.w3.org/2000/svg">
<g clip-path="url(#clip0_985_5072)">
<path d="M234.894 177.69L233.062 168.332C234.235 174.259 229.472 179.59 223.903 181.003L57.4147 226.042C55.8879 226.515 54.2762 226.645 52.6935 226.425C51.1108 226.204 49.5957 225.638 48.2554 224.767C47.4707 224.219 46.7807 223.547 46.2129 222.776L52.029 230.767C52.5875 231.532 53.2684 232.198 54.0441 232.74C55.3556 233.598 56.8386 234.158 58.3892 234.382C59.9397 234.605 61.5203 234.486 63.0202 234.034L225.927 190.159C231.432 188.792 236.057 183.498 234.894 177.69Z" fill="url(#paint0_linear_985_5072)"/>
<g filter="url(#filter0_i_985_5072)">
<path d="M167.62 0.596398C168.892 0.214894 170.212 0.0141473 171.54 2.85992e-05C172.737 -0.0172891 173.93 0.152972 175.075 0.504649C176.083 0.815311 177.018 1.32715 177.823 2.00933C178.573 2.63528 179.135 3.45811 179.444 4.38563L232.733 167.24C233.187 168.624 233.309 170.095 233.09 171.534C232.867 172.972 232.339 174.345 231.542 175.562C230.7 176.859 229.618 177.983 228.355 178.874C226.989 179.849 225.46 180.57 223.839 181.003L57.415 226.042C55.8992 226.464 54.3173 226.595 52.753 226.428C51.3526 226.273 50.0009 225.823 48.787 225.106C47.6362 224.424 46.6607 223.481 45.9385 222.354C45.194 221.171 44.739 219.829 44.6104 218.436L27.6931 49.4161C27.6064 48.4117 27.7635 47.4013 28.1511 46.4709C28.5803 45.4576 29.1815 44.5263 29.928 43.7185C30.7409 42.7775 31.6849 41.9586 32.7308 41.2871C33.8391 40.5881 35.0379 40.0448 36.2937 39.6723L167.62 0.596398Z" fill="#5A6D90"/>
</g>
<path d="M73.8196 35.0482L75.6514 39.1861C75.6471 39.2196 75.6471 39.2535 75.6514 39.287V39.3787V39.4705C75.6492 39.501 75.6492 39.5317 75.6514 39.5622L73.8196 35.4244V35.3326V35.2409C73.8196 35.2409 73.8196 35.1766 73.8196 35.1399C73.8153 35.1095 73.8153 35.0786 73.8196 35.0482" fill="#858585"/>
<g filter="url(#filter1_d_985_5072)">
<path d="M220.696 162.075L221.997 169.699L53.7133 213.041L49.3535 206.353L220.696 162.075Z" fill="#DCE3F1"/>
<path d="M31.7012 42.2948L170.348 3.81459L219.718 161.531L50.0212 205.384L31.7012 42.2948Z" fill="white" stroke="url(#paint1_linear_985_5072)" stroke-width="1.54253"/>
<path d="M185.287 139.459C192.835 137.55 195.72 146.193 187.935 148.542L65.4198 181.36C64.6841 181.564 63.9191 181.642 63.1575 181.59C57.955 181.122 58.0741 175.351 62.0401 172.984C62.7017 172.567 63.4251 172.257 64.1833 172.066L185.287 139.459Z" fill="#E6EDF6"/>
<path d="M177.136 113.695C184.702 111.796 187.514 120.448 179.747 122.788L63.4237 153.937C62.6952 154.129 61.9398 154.197 61.1888 154.138C55.9863 153.68 56.0596 147.918 60.0347 145.551C60.6965 145.134 61.4198 144.824 62.178 144.633L177.136 113.695Z" fill="#E6EDF6"/>
<path d="M169.864 90.3178C177.439 88.4186 180.205 97.0889 172.456 99.4102L59.7142 129.605C58.9753 129.809 58.2073 129.886 57.4427 129.834C52.2402 129.375 52.286 123.623 56.2703 121.246C56.932 120.83 57.6554 120.52 58.4135 120.329L169.864 90.3178Z" fill="#E6EDF6"/>
<path d="M120.009 44.3805C125.779 42.729 130.084 48.6743 124.588 52.5461C123.918 52.9658 123.185 53.2756 122.418 53.4636L41.6236 75.1531C33.6276 76.878 33.0689 67.8132 40.149 65.8589L120.009 44.3805Z" fill="#E6EDF6"/>
<path d="M124.589 64.5653C131.99 62.4 134.536 71.8502 126.989 73.6943L46.2038 95.3379C43.6301 96.0994 40.232 95.1086 39.7923 92.1909C34.0769 83.7684 122.006 67.3086 124.589 64.5653Z" fill="#E6EDF6"/>
</g>
<g filter="url(#filter2_d_985_5072)">
<path d="M128.226 14.9421C128.638 14.8878 129.056 14.9442 129.44 15.1054C129.823 15.2666 130.156 15.5269 130.406 15.8596C130.506 16.0614 130.635 16.4101 130.488 15.9788C130.222 15.1898 129.883 13.8686 129.627 13.0979C129.453 12.6575 129.352 12.0245 129.142 11.6116C128.831 11.1691 128.385 10.8401 127.871 10.6746C127.357 10.509 126.803 10.5158 126.293 10.6941L74.4331 24.6858C73.8207 24.7997 73.2694 25.13 72.8794 25.6166C72.4894 26.1032 72.2868 26.7138 72.3082 27.3374L73.8195 36.0811L75.6513 40.2189L74.1309 31.512C74.094 31.2273 74.1174 30.938 74.1994 30.663C74.2815 30.3879 74.4204 30.1333 74.6072 29.9155C75.0259 29.4022 75.5969 29.0359 76.2375 28.8696L127.658 15.043C127.843 14.9895 128.033 14.9557 128.226 14.9421V14.9421Z" fill="#CED7EA"/>
<g filter="url(#filter3_i_985_5072)">
<path d="M124.297 2.5009C130.214 0.794366 138.091 2.6844 139.868 9.15271L142.112 17.7588C143.751 24.5115 137.688 30.411 131.459 31.9891L78.2255 46.201C72.2445 47.9626 64.3675 45.6505 63.2684 38.9069L61.867 30.1541C61.1526 25.4198 64.2393 21.0342 68.1411 18.5203C68.5166 16.7495 121.915 3.45509 124.297 2.5009ZM131.423 20.6305L129.289 12.0428C129.212 11.7731 129.075 11.5245 128.887 11.3161C128.7 11.1078 128.468 10.9452 128.208 10.8409C127.597 10.5991 126.924 10.5668 126.293 10.7491L74.4336 24.6858C73.8219 24.8015 73.2717 25.1322 72.8821 25.6184C72.4924 26.1046 72.2891 26.7142 72.3086 27.3374L73.8199 36.0811C73.9162 36.4971 74.149 36.8688 74.4811 37.1366C74.8132 37.4044 75.2254 37.5528 75.6517 37.5582C75.9879 37.5831 76.3257 37.5489 76.6501 37.4573L129.353 23.3463C130.543 23.0435 131.688 21.9242 131.395 20.5938" fill="#E9EFF3"/>
</g>
<path d="M143.347 22.1352L141.103 13.5567L139.894 9.19858L142.138 17.8046C142.499 19.2441 142.499 20.7508 142.138 22.1902C140.892 27.1447 136.376 30.7229 131.458 32.0349L78.224 46.201C74.1298 47.2928 69.3395 46.8524 66.0605 43.9715C65.168 43.1766 64.4452 42.2091 63.9355 41.1273C64.2103 41.7328 65.914 45.5129 66.2162 45.99C68.964 50.5774 75.1374 51.6509 80.0009 50.3022L132.795 36.237C139.042 34.6773 144.977 28.7962 143.347 22.1352Z" fill="#CED7EA"/>
</g>
<g filter="url(#filter4_d_985_5072)">
<path d="M60.6973 121.357L54.2583 117.044L43.8809 110.09L46.8302 117.393L57.0794 124.32L63.4359 128.623L60.6973 121.357Z" fill="#BBAFFE"/>
<path d="M87.8064 101.383C88.8038 102.76 89.5709 104.291 90.0779 105.915C88.9238 102.649 87.5133 95.9604 85.2692 93.2905C71.5303 75.4453 35.6442 89.2719 38.6484 112.072C39.1888 115.228 42.0832 120.916 42.935 123.219C39.1614 114.439 44.3364 104.548 51.618 99.3643C62.0504 91.5748 79.16 90.1894 87.8064 101.383Z" fill="url(#paint2_linear_985_5072)"/>
<path d="M98.322 95.3457C98.4044 95.5384 100.832 104.154 100.813 104.071C102.847 112.099 100.419 120.237 95.4734 126.917C83.7129 142.982 57.3799 149.707 40.765 137.422C38.2555 135.547 36.1313 133.204 34.5092 130.522L31.1914 122.913C34.5803 128.528 40.0048 132.302 46.3705 134.348C62.6649 139.587 82.8886 132.66 93.0096 119.026C98.1663 112.127 100.676 103.612 98.322 95.3457Z" fill="url(#paint3_linear_985_5072)"/>
<path d="M84.0842 97.8046L60.6914 121.357L63.4392 128.623L69.4843 122.494L86.4565 105.31L84.0842 97.8046Z" fill="#6A61CC"/>
<g filter="url(#filter5_i_985_5072)">
<path d="M84.1268 97.8046L66.8524 115.173L60.6973 121.357L54.2583 117.044L43.8809 110.09L49.9901 104.08L60.3951 110.916L77.6237 93.7309L84.1268 97.8046Z" fill="url(#paint4_linear_985_5072)"/>
</g>
<g filter="url(#filter6_i_985_5072)">
<path d="M57.5241 78.317C69.8617 74.9407 84.141 76.7206 93.0255 86.0331C101.818 95.1438 100.609 109.337 93.0255 119.063C80.0102 136.871 48.0168 143.514 32.794 125.311C24.9445 115.723 27.2068 101.768 34.9648 92.6482C40.8218 85.6466 48.7044 80.6391 57.5241 78.317V78.317ZM67.4161 125.623C81.8603 122.237 95.5443 105.135 84.1227 91.8317C73.2231 80.4364 52.459 84.7853 43.2906 96.4191C37.8774 102.842 36.4119 112.686 41.9899 119.292C47.9801 126.494 58.4767 128.017 67.4161 125.604" fill="url(#paint5_linear_985_5072)"/>
</g>
<path d="M105.584 70.6468C105.816 70.678 106.036 70.7723 106.218 70.9195C106.401 71.0667 106.539 71.2611 106.619 71.4817L106.207 69.9037L106.152 69.6926C105.896 68.5366 105.09 65.6557 104.833 64.5455C104.742 64.1235 104.549 63.5179 104.458 63.1142C104.381 62.8974 104.247 62.7058 104.069 62.5602C103.892 62.4147 103.677 62.3207 103.45 62.2885C103.32 62.2699 103.187 62.2699 103.056 62.2885C102.745 62.2885 102.864 62.2885 102.827 62.2885C101.737 62.3986 57.2873 66.2337 57.1133 66.2612C56.5865 66.3168 56.0655 66.4182 55.5562 66.564C55.0348 66.7118 54.5263 66.9021 54.0358 67.1328L11.8023 87.1617C11.673 87.226 11.5503 87.3028 11.4359 87.391C11.171 87.5536 10.9667 87.7986 10.8542 88.0886C10.7417 88.3786 10.7273 88.6976 10.8131 88.9966C11.0054 89.8499 11.2161 90.7307 11.4359 91.5748C12.5768 95.928 13.9527 100.216 15.5576 104.42C17.4994 109.925 21.4287 118.017 23.517 122.623C22.2286 119.809 21.0074 116.965 19.8533 114.09C17.9131 109.232 16.2735 104.259 14.9439 99.1991C14.6845 98.2942 14.4766 97.3752 14.3211 96.4467C14.3211 95.7218 15.4752 94.997 15.4019 95.098L57.0675 75.2343C57.5614 75.0036 58.0768 74.8223 58.6063 74.693C59.0964 74.5684 59.5956 74.4825 60.0992 74.4361C61.0152 74.3627 104.98 70.6468 105.062 70.656C105.236 70.6438 105.41 70.6407 105.584 70.6468V70.6468Z" fill="url(#paint6_linear_985_5072)"/>
<path d="M119.406 99.2175C119.509 89.9746 118.783 80.7411 117.235 71.6285C116.896 69.3899 115.229 62.8573 114.743 60.6187C114.743 60.6829 114.743 60.7471 114.743 60.8113C117.033 72.1056 117.546 83.6935 117.281 95.2356C117.205 101.342 116.74 107.437 115.888 113.484C114.249 122.328 111.193 130.849 106.839 138.715C102.27 147.069 96.8258 154.912 90.5996 162.111C88.5601 164.509 86.4474 166.843 84.2614 169.112C82.7318 170.754 81.1472 172.387 79.0131 173.186C76.8522 174.081 74.4564 174.236 72.1986 173.626C70.5041 173.121 67.0785 172.048 62.6546 170.277C45.774 163.534 26.9334 151.661 17.6092 134.495C15.9911 131.535 14.4462 128.54 12.9746 125.513L16.6383 133.155C20.9798 142.523 26.6586 151.799 34.3799 158.506C43.3468 166.837 55.4462 173.525 65.723 177.654C70.0736 179.415 73.4534 180.498 75.1204 180.993C75.9774 181.245 76.8653 181.374 77.7583 181.379C81.5227 181.443 84.6277 179.351 86.9817 176.553C89.6287 173.8 92.1842 170.901 94.6205 167.928C105.08 155.129 113.992 140.45 117.464 124.109C119.195 115.98 119.268 107.521 119.406 99.2175Z" fill="url(#paint7_linear_985_5072)"/>
<g filter="url(#filter7_i_985_5072)">
<path d="M103.221 54.3155C104.594 54.1848 105.978 54.2466 107.334 54.499C108.555 54.7291 109.733 55.1501 110.823 55.7468C111.812 56.296 112.686 57.0312 113.397 57.912C114.081 58.768 114.552 59.7743 114.771 60.848C115.147 62.683 115.568 64.9584 115.962 67.7842C116.356 70.6101 116.722 74.0048 116.988 77.8766C117.253 81.7484 117.409 86.2625 117.372 91.2537C117.336 96.2448 117.116 101.887 116.621 108.025C116.03 114.571 114.535 121.003 112.179 127.137C109.838 133.241 106.918 139.106 103.459 144.652C100.235 149.849 96.6706 154.827 92.7888 159.552C89.1251 163.974 85.6629 167.809 82.6678 170.8C82.322 171.13 81.9548 171.436 81.5687 171.718C81.1799 172.012 80.773 172.282 80.3505 172.525C79.9237 172.762 79.4833 172.973 79.0316 173.158C78.5816 173.342 78.1195 173.496 77.6485 173.617C76.7514 173.852 75.8281 173.972 74.9008 173.975C74.4443 173.976 73.9882 173.946 73.536 173.883C73.09 173.821 72.6491 173.726 72.2171 173.598C70.5226 173.094 67.097 172.02 62.6731 170.25C57.4006 168.143 52.2805 165.672 47.3496 162.855C41.4462 159.513 35.9188 155.545 30.8629 151.019C25.5604 146.287 21.0787 140.706 17.6002 134.504C14.77 129.33 12.3978 124.494 10.401 120.054C8.40431 115.613 6.83807 111.649 5.54661 108.053C4.25515 104.456 3.31175 101.383 2.56984 98.6762C1.82794 95.9696 1.26006 93.7309 0.893693 91.9601C0.669334 90.8747 0.688104 89.7528 0.948649 88.6755C1.22549 87.5287 1.6997 86.4389 2.35002 85.4551C3.05647 84.3747 3.91747 83.404 4.90546 82.5742C5.97211 81.6656 7.15491 80.9035 8.42263 80.308L50.1981 60.5544C50.5004 60.4076 50.8118 60.27 51.1141 60.1415C51.4163 60.0131 51.7461 59.8846 52.03 59.7654C52.3139 59.6461 52.6712 59.536 52.9459 59.4351C53.2207 59.3342 53.5962 59.2332 53.926 59.1415C54.2557 59.0497 54.5854 58.9672 54.9152 58.8938C55.2449 58.8204 55.5838 58.747 55.9135 58.6827L56.9119 58.5268L57.9194 58.4075L103.221 54.3155ZM104.476 63.1968C104.445 63.0462 104.379 62.9049 104.284 62.7839C104.184 62.6619 104.063 62.5593 103.927 62.4811C103.772 62.3973 103.605 62.3384 103.432 62.3068C103.238 62.279 103.04 62.279 102.846 62.3068L57.2416 66.2429H56.8295L56.4173 66.3071L56.0051 66.3897L55.6021 66.4906L55.2083 66.6099L54.7778 66.7934L54.3931 66.9402L54.0084 67.1145L11.8482 87.1616C11.6643 87.2412 11.4943 87.3496 11.3444 87.4828C11.204 87.5967 11.0833 87.7331 10.9872 87.8865C10.892 88.0254 10.8237 88.181 10.7857 88.3452C10.7492 88.4959 10.7492 88.6532 10.7857 88.804C11.1613 90.483 11.7017 92.6299 12.4527 95.2264C13.2038 97.8229 14.2113 100.823 15.4936 104.218C16.7759 107.613 18.3696 111.475 20.3205 115.668C22.2715 119.861 24.6437 124.522 27.4373 129.476C30.4283 134.647 34.2149 139.314 38.6574 143.303C42.9323 147.168 47.5983 150.575 52.5796 153.469C56.8956 155.995 61.3788 158.224 65.9979 160.139C70.0372 161.809 73.3895 162.937 75.5328 163.598C78.2805 160.781 81.4222 157.341 84.6279 153.395C88.0328 149.219 91.1657 144.827 94.007 140.248C97.0238 135.412 99.5813 130.304 101.646 124.99C103.719 119.692 105.063 114.136 105.639 108.475C106.189 102.566 106.473 97.199 106.555 92.3546C106.638 87.5103 106.555 83.2898 106.354 79.5098C106.152 75.7297 105.841 72.546 105.502 69.8211C105.163 67.0961 104.788 64.8941 104.458 63.1784" fill="url(#paint8_linear_985_5072)"/>
</g>
</g>
</g>
<defs>
<filter id="filter0_i_985_5072" x="26.8987" y="-0.772437" width="206.297" height="227.271" filterUnits="userSpaceOnUse" color-interpolation-filters="sRGB">
<feFlood flood-opacity="0" result="BackgroundImageFix"/>
<feBlend mode="normal" in="SourceGraphic" in2="BackgroundImageFix" result="shape"/>
<feColorMatrix in="SourceAlpha" type="matrix" values="0 0 0 0 0 0 0 0 0 0 0 0 0 0 0 0 0 0 127 0" result="hardAlpha"/>
<feOffset dx="-0.771266" dy="-0.771266"/>
<feGaussianBlur stdDeviation="0.385633"/>
<feComposite in2="hardAlpha" operator="arithmetic" k2="-1" k3="1"/>
<feColorMatrix type="matrix" values="0 0 0 0 0.655208 0 0 0 0 0.695891 0 0 0 0 0.770833 0 0 0 1 0"/>
<feBlend mode="normal" in2="shape" result="effect1_innerShadow_985_5072"/>
</filter>
<filter id="filter1_d_985_5072" x="30.8613" y="2.87178" width="194.991" height="216.34" filterUnits="userSpaceOnUse" color-interpolation-filters="sRGB">
<feFlood flood-opacity="0" result="BackgroundImageFix"/>
<feColorMatrix in="SourceAlpha" type="matrix" values="0 0 0 0 0 0 0 0 0 0 0 0 0 0 0 0 0 0 127 0" result="hardAlpha"/>
<feOffset dx="3.08506" dy="5.39886"/>
<feGaussianBlur stdDeviation="0.385633"/>
<feColorMatrix type="matrix" values="0 0 0 0 0.290469 0 0 0 0 0.358672 0 0 0 0 0.4875 0 0 0 1 0"/>
<feBlend mode="normal" in2="BackgroundImageFix" result="effect1_dropShadow_985_5072"/>
<feBlend mode="normal" in="SourceGraphic" in2="effect1_dropShadow_985_5072" result="shape"/>
</filter>
<filter id="filter2_d_985_5072" x="61.7637" y="1.90611" width="84.1693" height="52.0228" filterUnits="userSpaceOnUse" color-interpolation-filters="sRGB">
<feFlood flood-opacity="0" result="BackgroundImageFix"/>
<feColorMatrix in="SourceAlpha" type="matrix" values="0 0 0 0 0 0 0 0 0 0 0 0 0 0 0 0 0 0 127 0" result="hardAlpha"/>
<feOffset dx="1.54253" dy="2.3138"/>
<feGaussianBlur stdDeviation="0.385633"/>
<feColorMatrix type="matrix" values="0 0 0 0 0.878924 0 0 0 0 0.89853 0 0 0 0 0.937743 0 0 0 0.54 0"/>
<feBlend mode="normal" in2="BackgroundImageFix" result="effect1_dropShadow_985_5072"/>
<feBlend mode="normal" in="SourceGraphic" in2="effect1_dropShadow_985_5072" result="shape"/>
</filter>
<filter id="filter3_i_985_5072" x="61.7637" y="1.90611" width="81.3904" height="44.8626" filterUnits="userSpaceOnUse" color-interpolation-filters="sRGB">
<feFlood flood-opacity="0" result="BackgroundImageFix"/>
<feBlend mode="normal" in="SourceGraphic" in2="BackgroundImageFix" result="shape"/>
<feColorMatrix in="SourceAlpha" type="matrix" values="0 0 0 0 0 0 0 0 0 0 0 0 0 0 0 0 0 0 127 0" result="hardAlpha"/>
<feOffset dx="0.771266"/>
<feGaussianBlur stdDeviation="0.385633"/>
<feComposite in2="hardAlpha" operator="arithmetic" k2="-1" k3="1"/>
<feColorMatrix type="matrix" values="0 0 0 0 1 0 0 0 0 1 0 0 0 0 1 0 0 0 1 0"/>
<feBlend mode="normal" in2="shape" result="effect1_innerShadow_985_5072"/>
</filter>
<filter id="filter4_d_985_5072" x="0.738281" y="54.2489" width="124.077" height="130.988" filterUnits="userSpaceOnUse" color-interpolation-filters="sRGB">
<feFlood flood-opacity="0" result="BackgroundImageFix"/>
<feColorMatrix in="SourceAlpha" type="matrix" values="0 0 0 0 0 0 0 0 0 0 0 0 0 0 0 0 0 0 127 0" result="hardAlpha"/>
<feOffset dx="4.62759" dy="3.08506"/>
<feGaussianBlur stdDeviation="0.385633"/>
<feColorMatrix type="matrix" values="0 0 0 0 0.618889 0 0 0 0 0.695186 0 0 0 0 0.847778 0 0 0 0.22 0"/>
<feBlend mode="normal" in2="BackgroundImageFix" result="effect1_dropShadow_985_5072"/>
<feBlend mode="normal" in="SourceGraphic" in2="effect1_dropShadow_985_5072" result="shape"/>
</filter>
<filter id="filter5_i_985_5072" x="43.8809" y="93.7309" width="41.0174" height="27.6256" filterUnits="userSpaceOnUse" color-interpolation-filters="sRGB">
<feFlood flood-opacity="0" result="BackgroundImageFix"/>
<feBlend mode="normal" in="SourceGraphic" in2="BackgroundImageFix" result="shape"/>
<feColorMatrix in="SourceAlpha" type="matrix" values="0 0 0 0 0 0 0 0 0 0 0 0 0 0 0 0 0 0 127 0" result="hardAlpha"/>
<feOffset dx="0.771266"/>
<feGaussianBlur stdDeviation="0.385633"/>
<feComposite in2="hardAlpha" operator="arithmetic" k2="-1" k3="1"/>
<feColorMatrix type="matrix" values="0 0 0 0 1 0 0 0 0 1 0 0 0 0 1 0 0 0 1 0"/>
<feBlend mode="normal" in2="shape" result="effect1_innerShadow_985_5072"/>
</filter>
<filter id="filter6_i_985_5072" x="27.9102" y="76.7341" width="72.0369" height="59.3803" filterUnits="userSpaceOnUse" color-interpolation-filters="sRGB">
<feFlood flood-opacity="0" result="BackgroundImageFix"/>
<feBlend mode="normal" in="SourceGraphic" in2="BackgroundImageFix" result="shape"/>
<feColorMatrix in="SourceAlpha" type="matrix" values="0 0 0 0 0 0 0 0 0 0 0 0 0 0 0 0 0 0 127 0" result="hardAlpha"/>
<feOffset dx="0.771266"/>
<feGaussianBlur stdDeviation="0.385633"/>
<feComposite in2="hardAlpha" operator="arithmetic" k2="-1" k3="1"/>
<feColorMatrix type="matrix" values="0 0 0 0 1 0 0 0 0 1 0 0 0 0 1 0 0 0 1 0"/>
<feBlend mode="normal" in2="shape" result="effect1_innerShadow_985_5072"/>
</filter>
<filter id="filter7_i_985_5072" x="0.738281" y="54.2489" width="117.41" height="119.726" filterUnits="userSpaceOnUse" color-interpolation-filters="sRGB">
<feFlood flood-opacity="0" result="BackgroundImageFix"/>
<feBlend mode="normal" in="SourceGraphic" in2="BackgroundImageFix" result="shape"/>
<feColorMatrix in="SourceAlpha" type="matrix" values="0 0 0 0 0 0 0 0 0 0 0 0 0 0 0 0 0 0 127 0" result="hardAlpha"/>
<feOffset dx="0.771266"/>
<feGaussianBlur stdDeviation="0.385633"/>
<feComposite in2="hardAlpha" operator="arithmetic" k2="-1" k3="1"/>
<feColorMatrix type="matrix" values="0 0 0 0 1 0 0 0 0 1 0 0 0 0 1 0 0 0 1 0"/>
<feBlend mode="normal" in2="shape" result="effect1_innerShadow_985_5072"/>
</filter>
<linearGradient id="paint0_linear_985_5072" x1="263.353" y1="204.771" x2="205.9" y2="226.022" gradientUnits="userSpaceOnUse">
<stop stop-color="#222D3F"/>
<stop offset="0.281083" stop-color="#2D394F"/>
<stop offset="0.39374" stop-color="#5A6D91"/>
<stop offset="0.56133" stop-color="#35425C"/>
<stop offset="1" stop-color="#47587A"/>
</linearGradient>
<linearGradient id="paint1_linear_985_5072" x1="222.681" y1="154.933" x2="70.9332" y2="159.575" gradientUnits="userSpaceOnUse">
<stop stop-color="white"/>
<stop offset="1" stop-color="white" stop-opacity="0"/>
</linearGradient>
<linearGradient id="paint2_linear_985_5072" x1="42.0293" y1="125.495" x2="90.6306" y2="100.822" gradientUnits="userSpaceOnUse">
<stop stop-color="#6A61CC"/>
<stop offset="0.498015" stop-color="#7F6CF2"/>
<stop offset="1" stop-color="#BBAFFE"/>
</linearGradient>
<linearGradient id="paint3_linear_985_5072" x1="96.2261" y1="120.848" x2="55.9513" y2="149.23" gradientUnits="userSpaceOnUse">
<stop stop-color="#6A61CC"/>
<stop offset="0.498015" stop-color="#7F6CF2"/>
<stop offset="1" stop-color="#BBAFFE"/>
</linearGradient>
<linearGradient id="paint4_linear_985_5072" x1="31.742" y1="96.4742" x2="78.6967" y2="140.913" gradientUnits="userSpaceOnUse">
<stop stop-color="#D4CCFF"/>
<stop offset="1" stop-color="#9783FF"/>
</linearGradient>
<linearGradient id="paint5_linear_985_5072" x1="6.4154" y1="82.6308" x2="104.444" y2="159.06" gradientUnits="userSpaceOnUse">
<stop stop-color="#D4CCFF"/>
<stop offset="1" stop-color="#9783FF"/>
</linearGradient>
<linearGradient id="paint6_linear_985_5072" x1="18.2863" y1="105.354" x2="104.56" y2="75.4151" gradientUnits="userSpaceOnUse">
<stop stop-color="#6A61CC"/>
<stop offset="0.460989" stop-color="#7F6CF2"/>
<stop offset="1" stop-color="#BBAFFE"/>
</linearGradient>
<linearGradient id="paint7_linear_985_5072" x1="111.384" y1="124.241" x2="34.2644" y2="157.205" gradientUnits="userSpaceOnUse">
<stop stop-color="#6A61CC"/>
<stop offset="0.498015" stop-color="#7F6CF2"/>
<stop offset="1" stop-color="#BBAFFE"/>
</linearGradient>
<linearGradient id="paint8_linear_985_5072" x1="3.31902" y1="85.213" x2="112.262" y2="154.36" gradientUnits="userSpaceOnUse">
<stop stop-color="#D4CCFF"/>
<stop offset="1" stop-color="#9783FF"/>
</linearGradient>
<clipPath id="clip0_985_5072">
<rect width="235.236" height="234.465" fill="white" transform="translate(0.738281)"/>
</clipPath>
</defs>
</svg>
