<svg width="1920" height="685" viewBox="0 0 1920 685" fill="none" xmlns="http://www.w3.org/2000/svg">
<path fill-rule="evenodd" clip-rule="evenodd" d="M263.85 37.201C247.566 24.9019 232.795 13.7451 220.307 1.72089L221.694 0.279297C234.087 12.2123 248.735 23.2766 265.007 35.5674C269.07 38.6363 273.234 41.7818 277.49 45.0363C298.765 61.306 322.245 80.2467 346.538 105.855C395.135 157.084 446.913 234.919 490.952 371.346L490.96 371.372L490.967 371.398C499.124 402.34 510.866 430.605 525.824 456.183C586.457 559.864 700.05 619.57 842.352 634.265C984.654 648.96 1155.57 618.623 1330.6 542.307L1330.62 542.299L1330.64 542.292C1445.11 497.689 1576.26 495.823 1686.92 515.353C1742.26 525.119 1792.51 540.24 1833.01 558.065C1873.49 575.878 1904.34 596.435 1920.78 617.133L1919.22 618.377C1903.08 598.057 1872.57 577.661 1832.21 559.896C1791.87 542.144 1741.78 527.065 1686.58 517.323C1576.16 497.838 1445.41 499.723 1331.38 544.149C1156.12 620.563 984.862 650.993 842.146 636.255C699.424 621.516 585.148 561.587 524.098 457.194C509.049 431.46 497.241 403.035 489.04 371.934C445.081 235.765 393.445 158.209 345.087 107.232C320.901 81.7362 297.516 62.8696 276.276 46.6259C272.048 43.3929 267.902 40.2616 263.85 37.201Z" fill="url(#paint0_linear_1706_10660)"/>
<path fill-rule="evenodd" clip-rule="evenodd" d="M297.611 545.876C164.318 454.864 57.9119 338.304 0.6875 258.69L2.31128 257.522C59.4202 336.975 165.665 453.361 298.738 544.224C431.821 635.093 591.611 700.351 755.863 677.789C841.405 666.039 916.074 628.818 990.205 581.661C1023.69 560.36 1057.05 537.045 1091.25 513.14C1094.9 510.583 1098.57 508.019 1102.25 505.449C1140.31 478.872 1179.53 451.766 1221.16 426.101C1387.77 323.404 1593.15 243.808 1919.71 312.65L1919.29 314.608C1593.34 245.893 1388.48 325.316 1222.21 427.805C1180.63 453.437 1141.46 480.513 1103.4 507.09C1099.72 509.66 1096.05 512.225 1092.39 514.784C1058.19 538.683 1024.8 562.024 991.278 583.349C917.05 630.568 842.094 667.964 756.135 679.771C591.188 702.428 430.894 636.882 297.611 545.876Z" fill="url(#paint1_linear_1706_10660)"/>
<defs>
<linearGradient id="paint0_linear_1706_10660" x1="1903.78" y1="638.351" x2="220.306" y2="638.351" gradientUnits="userSpaceOnUse">
<stop stop-color="#D9E2FC"/>
<stop offset="0.208333" stop-color="#DAE4FE"/>
<stop offset="0.40625" stop-color="#CAD1E5"/>
<stop offset="0.734375" stop-color="#E3E7F3"/>
<stop offset="1" stop-color="#B6BFD9"/>
</linearGradient>
<linearGradient id="paint1_linear_1706_10660" x1="1932.82" y1="334.697" x2="-0.844243" y2="334.697" gradientUnits="userSpaceOnUse">
<stop stop-color="#DAD2FF"/>
<stop offset="0.1875" stop-color="#C4B9FF"/>
<stop offset="0.833122" stop-color="#9480FF"/>
<stop offset="1" stop-color="#BDB0FF"/>
</linearGradient>
</defs>
</svg>
